<svg width="119" height="50" viewBox="0 0 119 50" fill="none" xmlns="http://www.w3.org/2000/svg">
<g clip-path="url(#clip0_374_2384)">
<path d="M39.0999 7.78151C39.0999 7.39519 38.9902 7.06407 38.7709 6.78813C38.5515 6.56738 38.2225 6.40181 37.8386 6.40181H33.9451V3.75281H38.4418C39.5386 3.75281 40.416 4.08393 41.0193 4.691C41.6225 5.29806 41.9515 6.18106 41.9515 7.34V14.9559L39.0999 15.1215V7.72632V7.78151Z" fill="white"/>
<path d="M43.542 13.5209C45.0226 13.245 46.1742 13.0242 46.942 12.8035L44.8033 6.18098L44.0904 4.80129C44.8581 4.35979 45.7355 3.97347 46.6678 3.58716C46.942 3.91828 47.1613 4.24941 47.271 4.58054C47.4355 4.96685 47.6001 5.40835 47.7646 5.96023L49.5194 11.6997C50.0678 11.2582 50.5065 10.7064 50.7259 9.98892C50.9452 9.27149 51.1097 8.3333 51.1097 7.11917C51.1097 5.90504 51.0001 5.1876 50.8355 4.13903C51.6033 3.91828 52.5904 3.80791 53.6872 3.69753C53.8517 4.47016 53.9065 5.40835 53.9065 6.5121C53.9065 8.66442 53.5775 10.3201 52.9742 11.5342C52.371 12.7483 51.3839 13.6865 49.9581 14.4039C48.5323 15.1214 46.5033 15.6733 43.871 16.1699C43.7065 14.9558 43.5968 14.0728 43.542 13.5209Z" fill="white"/>
<path d="M58.0743 6.45699H55.9355V3.80798H60.9807V10.8168L58.0743 10.9824V6.4018V6.45699Z" fill="white"/>
<path d="M14.8064 23.5651H12.6677V20.9161H17.7129V27.925L14.8064 28.0905V23.51V23.5651Z" fill="white"/>
<path d="M19.4678 29.5254H22.6484V23.51H20.2355V20.861H25.5V32.1192H19.4678V29.4702V29.5254Z" fill="white"/>
<path d="M29.7226 23.5651H27.6936V20.9161H32.5742V32.064L29.7226 32.2296V23.51V23.5651Z" fill="white"/>
<path d="M39.8677 24.8897C39.8677 24.5033 39.7581 24.1722 39.5387 23.8963C39.3193 23.6755 38.9903 23.51 38.6064 23.51H34.7129V20.861H39.2097C40.3064 20.861 41.1839 21.1921 41.7871 21.7992C42.3903 22.4062 42.7193 23.2892 42.7193 24.4482V32.0641L39.8677 32.2296V24.8345V24.8897Z" fill="white"/>
<path d="M46.6128 23.5651H44.4741V20.9161H49.5193V27.925L46.6128 28.0905V23.51V23.5651Z" fill="white"/>
<path d="M50.8354 30.6291C52.3161 30.3531 53.4677 30.1324 54.2355 29.9116L52.0967 23.2891L51.3838 21.9094C52.1516 21.4679 53.029 21.0816 53.9613 20.6953C54.2355 21.0264 54.4548 21.3576 54.5645 21.6887C54.729 22.075 54.8935 22.5165 55.058 23.0684L56.8129 28.8079C57.3613 28.3664 57.8 27.8145 58.0193 27.0971C58.2387 26.3796 58.4032 25.4415 58.4032 24.2273C58.4032 23.0132 58.2935 22.2958 58.129 21.2472C58.8967 21.0264 59.8838 20.9161 60.9806 20.8057C61.1451 21.5783 61.2 22.5165 61.2 23.6203C61.2 25.7726 60.8709 27.4282 60.2677 28.6423C59.6645 29.8565 58.6774 30.7947 57.2516 31.5121C55.8258 32.2295 53.7967 32.7814 51.1645 33.2781C51 32.064 50.8903 31.181 50.8354 30.6291Z" fill="white"/>
<path d="M2.13871 40.6733H0V38.0243H5.04516V45.0331L2.13871 45.1987V40.6181V40.6733Z" fill="white"/>
<path d="M8.1161 47.5718C8.55481 47.1303 9.10319 46.6336 9.70642 46.0817C10.4742 45.3643 11.0225 44.8124 11.4064 44.4813C11.7903 44.1501 12.0096 43.7638 12.229 43.3775C12.4484 42.9912 12.5032 42.6049 12.5032 42.1634V40.7285H7.18384V35.1545H10.0354V38.0795H15.3548V41.7219C15.3548 42.7152 15.1903 43.6534 14.8064 44.4261C14.4225 45.1987 13.929 45.9161 13.3258 46.5784C12.7225 47.2406 11.7903 48.1236 10.529 49.2826L9.76126 50C9.26771 49.3378 8.71932 48.5651 8.17093 47.6269L8.1161 47.5718Z" fill="white"/>
<path d="M18.2063 49.393L17.658 39.5144V38.2451L20.3999 38.0795L20.8934 46.6888C21.716 46.6888 22.4289 46.5232 23.087 46.1369C23.7451 45.8058 24.2386 45.2539 24.5676 44.6468C24.8967 44.0398 25.116 43.2672 25.116 42.4393C25.116 41.17 24.6225 40.563 23.6354 40.563C22.6483 40.563 22.9225 40.6733 22.3741 40.8389L21.716 38.5762C22.0451 38.3555 22.4838 38.1899 22.9225 38.0795C23.3612 37.9691 23.8547 37.8588 24.3483 37.8588C25.4451 37.8588 26.3225 38.2451 26.9805 38.9625C27.6386 39.68 27.9128 40.7285 27.9128 42.053C27.9128 43.3775 27.5838 44.702 26.9257 45.861C26.2676 47.0199 25.3354 47.9029 24.2386 48.51C23.6354 48.8411 22.9225 49.0619 22.0999 49.2274C21.2773 49.393 20.3999 49.5034 19.4676 49.5034H18.1515V49.393H18.2063Z" fill="white"/>
<path d="M31.7515 40.6733H29.6128V38.0243H34.658V45.0331L31.7515 45.1987V40.6181V40.6733Z" fill="white"/>
<path d="M36.1386 46.9647C37.6741 46.3576 38.9902 45.6954 40.087 45.0883L39.6483 40.6733H37.0709V38.0243H42.1161L43.2128 48.7859C42.3903 49.117 41.5128 49.3929 40.6902 49.5585L40.4709 47.5718C39.3193 48.1788 37.9483 48.8963 36.1935 49.6689H35.9741C35.9741 48.7307 35.9741 47.7925 36.0838 46.9095H36.1386V46.9647Z" fill="white"/>
<path d="M46.6678 40.6733H44.5291V38.0243H49.5742V45.0331L46.6678 45.1987V40.6181V40.6733Z" fill="white"/>
<path d="M56.7031 40.6733H51.658V38.0243H61.5838L61.3096 40.6733H59.5547V49.2274L56.7031 49.3929V40.6733Z" fill="white"/>
<path d="M108.855 33.8852H101.836C101.232 33.8852 100.739 33.3885 100.739 32.7815C100.739 32.1744 101.232 31.6777 101.836 31.6777H108.855C113.187 31.6777 116.697 28.2009 116.697 23.8962C116.697 19.5916 113.9 16.8322 110.116 16.2252C109.787 16.2252 109.513 15.9492 109.348 15.6733C109.184 15.3974 109.184 15.011 109.348 14.6799C109.677 13.9625 109.842 13.1898 109.842 12.4172C109.842 9.27152 107.265 6.73289 104.139 6.73289C101.013 6.73289 101.068 7.33996 100.026 8.4989C99.7517 8.77483 99.4226 8.88521 99.0388 8.83002C98.6549 8.77483 98.3807 8.4989 98.2162 8.16777C96.6807 4.52539 93.1162 2.20751 89.1678 2.20751C85.2194 2.20751 79.3517 6.56733 79.3517 11.9205C79.3517 17.2737 79.4065 13.245 79.571 13.9073C79.6807 14.5143 79.3517 15.0662 78.7484 15.1766C75.0194 16.1148 72.3872 19.426 72.3872 23.2892C72.3872 27.1523 76.171 31.6225 80.8323 31.6225H83.7388C84.342 31.6225 84.8355 32.1192 84.8355 32.7263C84.8355 33.3333 84.342 33.83 83.7388 33.83H80.8323C74.9646 33.83 70.1936 29.0839 70.1936 23.2892C70.1936 17.4945 73.0452 14.8455 77.2678 13.3554C77.213 12.9139 77.1581 12.4172 77.1581 11.9205C77.1581 5.3532 82.5323 0 89.1678 0C95.8033 0 97.4484 2.31788 99.5872 6.01545C100.903 5.07726 102.494 4.58057 104.139 4.58057C108.526 4.58057 112.036 8.11258 112.036 12.4724C112.036 16.8322 111.981 13.7417 111.816 14.3488C116.039 15.5629 119 19.426 119 23.8962C119 28.3664 114.503 33.8852 108.965 33.8852H108.855Z" fill="white"/>
<path d="M89.0581 49.1722H85.1097C84.5065 49.1722 84.013 48.6755 84.013 48.0684C84.013 47.4613 84.5065 46.9647 85.1097 46.9647H87.9613V30.9051L84.0678 26.9867C83.6291 26.5452 83.6291 25.883 84.0678 25.4415C84.5065 25 85.1646 25 85.6033 25.4415L89.8259 29.6909C90.0452 29.9117 90.1549 30.1876 90.1549 30.4636V48.1236C90.1549 48.7307 89.6613 49.2273 89.0581 49.2273V49.1722Z" fill="white"/>
<path d="M101.616 49.1722H97.6129C97.0097 49.1722 96.5161 48.6755 96.5161 48.0684V27.649C96.5161 27.373 96.6258 27.0971 96.8451 26.8764L101.726 22.0198C102.164 21.5783 102.877 21.5783 103.261 22.0198C103.7 22.4613 103.7 23.1788 103.261 23.5651L98.7097 28.0905V46.9095H101.616C102.219 46.9095 102.713 47.4062 102.713 48.0132C102.713 48.6203 102.219 49.117 101.616 49.117V49.1722Z" fill="white"/>
<path d="M104.468 24.1722C102.439 24.1722 100.739 22.5166 100.739 20.4747C100.739 18.4327 102.384 16.7771 104.468 16.7771C106.552 16.7771 108.197 18.4327 108.197 20.4747C108.197 22.5166 106.552 24.1722 104.468 24.1722ZM104.468 18.9846C103.645 18.9846 102.932 19.6469 102.932 20.4747C102.932 21.3025 103.59 21.9647 104.468 21.9647C105.345 21.9647 106.003 21.3025 106.003 20.4747C106.003 19.6469 105.345 18.9846 104.468 18.9846Z" fill="white"/>
<path d="M93.1162 19.3157C91.0872 19.3157 89.3872 17.66 89.3872 15.6181C89.3872 13.5762 91.0324 11.9205 93.1162 11.9205C95.2001 11.9205 96.8453 13.5762 96.8453 15.6181C96.8453 17.66 95.2001 19.3157 93.1162 19.3157ZM93.1162 14.128C92.2937 14.128 91.5808 14.7903 91.5808 15.6181C91.5808 16.4459 92.2388 17.1082 93.1162 17.1082C93.9937 17.1082 94.6517 16.4459 94.6517 15.6181C94.6517 14.7903 93.9937 14.128 93.1162 14.128Z" fill="white"/>
<path d="M82.7515 27.8698C80.7225 27.8698 79.0225 26.2141 79.0225 24.1722C79.0225 22.1302 80.6676 20.4746 82.7515 20.4746C84.8354 20.4746 86.4805 22.1302 86.4805 24.1722C86.4805 26.2141 84.8354 27.8698 82.7515 27.8698ZM82.7515 22.6821C81.9289 22.6821 81.216 23.3444 81.216 24.1722C81.216 25 81.8741 25.6622 82.7515 25.6622C83.6289 25.6622 84.287 25 84.287 24.1722C84.287 23.3444 83.6289 22.6821 82.7515 22.6821Z" fill="white"/>
<path d="M93.3899 49.1721C92.7869 49.1721 92.2935 48.6754 92.2935 48.0684V18.3774C92.2935 17.7704 92.7869 17.2737 93.3899 17.2737C93.993 17.2737 94.4864 17.7704 94.4864 18.3774V48.0684C94.4864 48.6754 93.993 49.1721 93.3899 49.1721Z" fill="white"/>
</g>
<defs>
<clipPath id="clip0_374_2384">
<rect width="119" height="50" fill="white"/>
</clipPath>
</defs>
</svg>
