<svg width="61" height="60" viewBox="0 0 61 60" fill="none" xmlns="http://www.w3.org/2000/svg">
<g id="logo" clip-path="url(#clip0_374_2379)">
<g id="Union">
<path d="M18.541 1.15538C19.7502 3.06409 21.6454 4.43357 23.8409 4.98992C24.1839 5.06696 24.424 5.36653 24.4154 5.71746V16.7075C24.4154 17.0585 24.1839 17.358 23.8409 17.4351C23.0948 17.6148 22.383 17.8973 21.714 18.2653C21.4053 18.4536 21.0108 18.3851 20.7793 18.1112L13.8243 9.81734C13.6013 9.54344 13.6013 9.15828 13.8243 8.88438C15.3336 7.00135 16.0111 4.58764 15.6938 2.19961C11.0371 4.20247 7.0665 7.5149 4.27077 11.7346C6.44904 12.4193 8.81597 12.2396 10.8656 11.2125C11.1743 11.067 11.5345 11.1526 11.7489 11.4179L18.8669 19.8145C19.107 20.0713 19.1327 20.465 18.9183 20.7475C18.4724 21.3552 18.1036 22.0143 17.8292 22.7161C17.692 23.0328 17.3404 23.2126 16.9973 23.127L6.25179 21.261C5.90876 21.2097 5.65148 20.9272 5.62576 20.5849C5.54857 18.214 4.51947 15.9714 2.77 14.3623C0.943343 17.9743 0 21.9543 0 25.9858C0 26.9872 0.0428792 27.9972 0.154365 28.99C2.31548 28.0999 4.03922 26.3795 4.93111 24.2225C5.06833 23.9059 5.41993 23.7261 5.76297 23.8117L17.1345 25.7803V25.9858C17.1345 26.8674 17.2803 27.7404 17.5462 28.5792C17.6319 28.9045 17.4861 29.2468 17.186 29.4094L7.68396 34.9045C7.40096 35.0757 7.04077 35.0329 6.80065 34.8018C5.23127 33.0899 3.04443 32.0628 0.728947 31.9515C1.89526 36.8646 4.47659 41.3325 8.15563 44.8075C9.24476 42.6934 9.43343 40.2198 8.67876 37.9687C8.55869 37.6263 8.72164 37.2497 9.03894 37.0871L18.4381 31.6948C18.7468 31.5065 19.1413 31.5749 19.3728 31.8488C20.5649 33.1841 22.1428 34.1256 23.8923 34.545C24.2096 34.6391 24.424 34.9387 24.4154 35.2725V46.468C24.4154 46.896 24.0638 47.2469 23.635 47.2469H11.1229C15.5051 50.2341 20.6678 51.8518 25.9762 51.9117C31.2761 51.8518 36.4473 50.2341 40.8296 47.2469H28.0516C27.6228 47.2469 27.2712 46.896 27.2712 46.468V35.3239C27.2712 34.973 27.5027 34.6734 27.8458 34.5963C29.6467 34.2112 31.2847 33.2611 32.5196 31.9002C32.7512 31.6263 33.1456 31.5578 33.4544 31.7461L42.8535 37.2412C43.1794 37.4038 43.3338 37.7804 43.2137 38.1228C42.5019 40.3567 42.7077 42.779 43.7883 44.8589C47.4759 41.3753 50.0572 36.8902 51.215 31.9515C48.848 32.0543 46.6183 33.0985 45.0318 34.8531C44.8002 35.127 44.4057 35.1955 44.097 35.0072L34.6979 29.5635C34.372 29.4009 34.2176 29.0243 34.3377 28.6819C34.6378 27.8174 34.7922 26.9016 34.8008 25.9858V25.7803L46.1724 23.7603C46.5154 23.6833 46.8584 23.8545 47.0042 24.1712C47.8875 26.3452 49.6113 28.0828 51.781 28.99C51.8924 27.9886 51.9439 26.9872 51.9353 25.9858C51.9353 21.9543 51.0006 17.9829 49.1825 14.3794C47.4416 15.9714 46.4125 18.1883 46.3267 20.5506C46.3096 20.893 46.0437 21.1755 45.7007 21.2268L34.9551 23.0927C34.6035 23.1612 34.2434 22.9643 34.1233 22.6305C33.8231 21.8859 33.4201 21.1926 32.9313 20.5592C32.7083 20.2853 32.7083 19.9001 32.9313 19.6262L39.9892 11.3323C40.195 11.067 40.5638 10.9814 40.8725 11.1269C42.9478 12.2225 45.3834 12.445 47.6217 11.7517C44.8259 7.53202 40.8553 4.21959 36.1986 2.21673C35.8813 4.56196 36.516 6.93287 37.9653 8.79879C38.1797 9.08124 38.1539 9.47497 37.9138 9.73175L31.0103 18.0257C30.7959 18.3167 30.3928 18.4108 30.0755 18.2311C29.3723 17.8545 28.6176 17.572 27.8458 17.4008C27.5027 17.3238 27.2626 17.0242 27.2712 16.6733V5.78593C27.2712 5.43501 27.5027 5.13543 27.8458 5.0584C30.1441 4.5534 32.1423 3.15825 33.4029 1.1725C30.976 0.462085 28.4804 0.0940371 25.9677 0.0683594C23.4549 0.0940371 20.9594 0.462085 18.541 1.15538Z" fill="white"/>
<path d="M18.1464 55.3525C18.0693 55.3696 18.0092 55.3781 17.9578 55.3781C17.9063 55.3781 17.8634 55.3696 17.8206 55.3439C17.7434 55.3097 17.6834 55.2754 17.649 55.2241C17.6147 55.1727 17.5976 55.1214 17.5976 55.07C17.5976 55.0101 17.6147 54.9587 17.6405 54.8988C17.6662 54.8389 17.7091 54.7876 17.7605 54.7362C17.7888 54.708 17.823 54.6797 17.863 54.6466L17.8892 54.6249C17.9406 54.5821 17.9921 54.5393 18.0521 54.488C18.0778 54.4666 18.1056 54.4453 18.1334 54.4239C18.1612 54.4026 18.1894 54.3809 18.2151 54.3596C18.2445 54.3351 18.274 54.3134 18.3018 54.2929C18.3224 54.2777 18.3427 54.2628 18.3608 54.2483L18.6438 54.3681L18.2065 54.9074L18.155 55.3696L18.1464 55.3525Z" fill="white"/>
<path d="M17.2974 55.0015C17.2203 55.0186 17.1602 55.0272 17.1088 55.0272C17.0573 55.0272 17.0144 55.0186 16.9716 55.0015C16.8944 54.9673 16.8429 54.9331 16.8086 54.8817C16.7743 54.8303 16.7572 54.779 16.7572 54.7191C16.7572 54.6592 16.7657 54.6078 16.8 54.5479C16.8258 54.488 16.8686 54.4366 16.9201 54.3853C16.9485 54.3569 16.9828 54.3285 17.023 54.2953L17.0487 54.274C17.1002 54.2312 17.1516 54.1884 17.2117 54.137C17.2374 54.1157 17.2653 54.0943 17.2932 54.0729C17.321 54.0515 17.3489 54.0301 17.3746 54.0087C17.4041 53.9842 17.4335 53.9625 17.4614 53.942L17.4626 53.9411C17.474 53.9327 17.4852 53.9244 17.496 53.9163C17.5044 53.9099 17.5126 53.9037 17.5204 53.8974L17.8034 54.0172L17.366 54.5564L17.3146 55.0186L17.2974 55.0015Z" fill="white"/>
<path d="M14.2876 53.1528C14.3991 53.0672 14.5277 52.9816 14.6735 52.896L14.6135 52.7334C14.4591 52.7677 14.2962 52.819 14.1504 52.896C14.0046 52.9645 13.8588 53.0672 13.7302 53.1699C13.6015 53.2727 13.4815 53.401 13.37 53.5466C13.2585 53.6921 13.1556 53.8547 13.0784 54.0344C13.0012 54.2142 12.9412 54.3939 12.9069 54.5737C12.864 54.7534 12.8554 54.9246 12.8554 55.0958C12.8554 55.267 12.8811 55.4296 12.924 55.5922C12.9669 55.7548 13.0269 55.9089 13.1041 56.0544L13.2671 55.9945L13.261 55.956C13.2374 55.8075 13.2149 55.6663 13.207 55.5323C13.1899 55.3868 13.1899 55.2413 13.207 55.1043C13.2242 54.9588 13.2499 54.8219 13.2928 54.6764C13.3357 54.5394 13.3957 54.3768 13.4729 54.2142C13.5415 54.0515 13.6272 53.906 13.7044 53.7777C13.7816 53.6493 13.8759 53.538 13.9703 53.4353C14.0646 53.3326 14.1761 53.2384 14.2876 53.1528Z" fill="white"/>
<path d="M15.2992 54.1029C15.2391 54.0772 15.1791 54.0516 15.1362 54.0344C15.0848 54.0173 15.0419 53.9916 14.999 53.966C14.9562 53.9403 14.9132 53.9146 14.8704 53.8804C14.8275 53.8461 14.7846 53.8119 14.7417 53.7691C14.7632 53.7477 14.7825 53.7263 14.8018 53.7049C14.821 53.6835 14.8404 53.6621 14.8618 53.6407C14.8798 53.6183 14.9001 53.5958 14.9216 53.5721C14.9411 53.5507 14.9615 53.5282 14.9819 53.5038C15.0333 53.5466 15.0762 53.5808 15.1191 53.6065C15.162 53.6321 15.2048 53.6578 15.2391 53.6835C15.282 53.7092 15.3249 53.7263 15.3678 53.7434C15.4102 53.7603 15.4693 53.7856 15.5286 53.811L15.5296 53.8114L15.5307 53.8119L15.728 53.8889C15.8137 53.9232 15.8995 53.966 15.9767 54.0259C16.0538 54.0772 16.1225 54.1457 16.1653 54.2313C16.2082 54.3169 16.2339 54.411 16.2425 54.5309C16.2511 54.6507 16.2168 54.7791 16.1568 54.9332L15.565 56.3968L15.1963 56.2513L15.7708 54.8304C15.8051 54.7448 15.8309 54.6678 15.8394 54.5993C15.848 54.5309 15.8394 54.4795 15.8309 54.4282C15.8223 54.3768 15.7794 54.334 15.728 54.2998L15.7126 54.2895C15.6645 54.2572 15.6081 54.2194 15.5307 54.1885L15.2992 54.0943V54.1029Z" fill="white"/>
<path d="M20.0374 55.1342C20.0246 55.1621 20.0117 55.1899 19.9988 55.2156L20.359 55.3953C20.3161 55.5408 20.2647 55.6778 20.2046 55.7976C20.1532 55.926 20.0846 56.0373 20.016 56.14C19.9474 56.2427 19.8616 56.3368 19.7758 56.4139C19.6901 56.4995 19.5872 56.5679 19.4757 56.6193C19.464 56.514 19.4482 56.4127 19.434 56.3209C19.4274 56.2785 19.4211 56.2377 19.4157 56.1999C19.4002 56.1279 19.3909 56.062 19.3823 56.0005C19.3765 55.9597 19.371 55.9208 19.3642 55.8832C19.3589 55.8254 19.3504 55.774 19.3427 55.7271C19.3378 55.6977 19.3332 55.6699 19.3299 55.6435C19.3265 55.6165 19.3218 55.5909 19.3173 55.5665C19.3105 55.5291 19.3042 55.4949 19.3042 55.4638C19.3009 55.4441 19.2963 55.4256 19.292 55.408C19.285 55.3796 19.2784 55.3532 19.2784 55.3269C19.2756 55.3126 19.2718 55.2983 19.268 55.2841C19.2603 55.2555 19.2527 55.227 19.2527 55.1985C19.2356 55.13 19.2184 55.0701 19.2013 55.0273C19.1755 54.9759 19.1498 54.9331 19.1155 54.8989C19.0812 54.8561 19.0383 54.8133 18.9869 54.7791C18.9426 54.7538 18.8983 54.7239 18.8471 54.6893C18.829 54.6771 18.8098 54.6641 18.7896 54.6507C18.7682 54.6763 18.7489 54.6999 18.7296 54.7234C18.7104 54.7468 18.6909 54.7706 18.6696 54.7962C18.6524 54.8219 18.6331 54.8454 18.6138 54.8689C18.5945 54.8925 18.5752 54.916 18.5581 54.9417C18.5879 54.964 18.6145 54.9831 18.6386 55.0004C18.6696 55.0227 18.6969 55.0423 18.721 55.0615C18.7639 55.0958 18.7896 55.1214 18.8153 55.1557C18.8325 55.1899 18.8497 55.2241 18.8582 55.2584C18.8668 55.2926 18.8754 55.3354 18.884 55.3953C18.9054 55.5066 18.9247 55.62 18.944 55.7334C18.9633 55.8468 18.9826 55.9602 19.004 56.0715C19.0255 56.1828 19.0448 56.2962 19.064 56.4096C19.0833 56.523 19.1026 56.6364 19.1241 56.7477C18.9869 56.7819 18.8497 56.8076 18.721 56.8247L18.6694 56.8312C18.5515 56.846 18.4399 56.86 18.3351 56.8675L18.378 57.2356C18.5066 57.227 18.6353 57.2099 18.7553 57.1928C18.8753 57.1757 18.9867 57.15 19.0981 57.1243C19.2525 57.0815 19.3899 57.0387 19.5271 56.9788C19.6558 56.9274 19.7844 56.8504 19.8959 56.7734C19.9988 56.6963 20.1017 56.6107 20.1875 56.5166C20.2732 56.4224 20.3504 56.3197 20.419 56.217C20.4876 56.1057 20.5477 55.9945 20.5991 55.8832C20.6506 55.7634 20.6935 55.6436 20.7363 55.5237C20.7396 55.5012 20.744 55.4798 20.7483 55.4592C20.7554 55.4251 20.7621 55.3931 20.7621 55.3611L20.7653 55.3387C20.7727 55.2882 20.7792 55.2433 20.7792 55.1985L20.1532 54.8903C20.1275 54.9502 20.1017 55.0016 20.076 55.053C20.0631 55.0786 20.0503 55.1064 20.0374 55.1342Z" fill="white"/>
<path d="M21.0022 58.083C21.1222 57.9631 21.2337 57.8519 21.3195 57.7406C21.4138 57.6293 21.491 57.5181 21.5682 57.3982C21.6453 57.2784 21.6968 57.15 21.7483 57.0045C21.7997 56.8676 21.8426 56.7049 21.8769 56.5252C21.9112 56.3454 21.9369 56.1828 21.9455 56.0287C21.9455 55.8832 21.9455 55.7377 21.9284 55.5922C21.9112 55.4553 21.8769 55.3183 21.834 55.1814C21.7911 55.0444 21.7397 54.8989 21.6711 54.7449L21.8083 54.6422C21.9198 54.762 22.0055 54.8989 22.0913 55.0444C22.1685 55.1899 22.2285 55.344 22.2714 55.5152C22.3143 55.6778 22.34 55.8576 22.34 56.0373C22.34 56.2171 22.3314 56.4054 22.2885 56.6022C22.2457 56.7991 22.1942 56.9703 22.117 57.1415C22.0398 57.3041 21.9541 57.4581 21.8512 57.5951C21.7483 57.732 21.6282 57.8519 21.4996 57.9546C21.3709 58.0573 21.2337 58.1514 21.0879 58.2199L20.9936 58.0744L21.0022 58.083Z" fill="white"/>
<path d="M26.3276 57.0473L26.3448 55.635L26.3619 55.6264L24.621 55.6093V56.2684L25.5987 56.2769V57.0045C25.5987 57.0835 25.5962 57.1549 25.5938 57.2202C25.5919 57.275 25.5901 57.3256 25.5901 57.3725C25.5815 57.4752 25.573 57.5694 25.5644 57.6464C25.5558 57.732 25.5472 57.8005 25.5301 57.8775C25.5208 57.9194 25.514 57.9613 25.5069 58.0046C25.5011 58.0409 25.495 58.0781 25.4872 58.1172L26.2162 58.237C26.2343 58.1706 26.2482 58.1041 26.2608 58.0437C26.2661 58.0185 26.2711 57.9943 26.2762 57.9717C26.2801 57.9364 26.2858 57.8993 26.2917 57.8612C26.2987 57.8162 26.3058 57.7698 26.3105 57.7234C26.3191 57.6378 26.3276 57.5437 26.3276 57.441V57.0473Z" fill="white"/>
<path d="M28.7118 56.2426C28.5947 56.2582 28.4919 56.2667 28.3968 56.2745L28.3687 56.2769C28.2659 56.2854 28.1716 56.2854 28.0773 56.2854C27.9829 56.2854 27.8885 56.2769 27.7941 56.2597L27.7504 56.252C27.6663 56.2371 27.5714 56.2203 27.4768 56.1913C27.4897 56.1356 27.5026 56.0821 27.5154 56.0286C27.5282 55.9753 27.5412 55.9215 27.554 55.866C27.5626 55.8289 27.5712 55.7928 27.5797 55.7566C27.5969 55.6844 27.614 55.6121 27.6312 55.5322C27.7513 55.5579 27.8627 55.575 27.9571 55.5836C28.0514 55.5921 28.1457 55.6007 28.2315 55.6007C28.3172 55.6007 28.4116 55.6007 28.5059 55.5921C28.5874 55.5921 28.6817 55.5793 28.7888 55.5648L28.8404 55.5579L29.2435 55.5151C29.4235 55.498 29.6036 55.498 29.7837 55.5151C29.9638 55.5322 30.1268 55.5921 30.2811 55.6948C30.4269 55.789 30.5641 55.9345 30.667 56.1228C30.7785 56.3111 30.8471 56.5679 30.8814 56.876L31.2073 59.8375L30.4612 59.9145L30.1439 57.0301C30.1268 56.8503 30.0925 56.7048 30.0582 56.585C30.0153 56.4652 29.9638 56.371 29.8866 56.3025C29.8095 56.2341 29.7151 56.1913 29.6036 56.1742C29.4922 56.157 29.3464 56.157 29.1749 56.1742L28.7032 56.2255L28.7118 56.2426Z" fill="white"/>
<path d="M34.415 59.2726L33.4116 54.8732L31.9451 55.207L32.0909 55.8489L32.8285 55.6778L33.686 59.4353L34.415 59.2726Z" fill="white"/>
<path d="M35.9929 54.7191C35.8728 54.7619 35.7699 54.7962 35.667 54.8304C35.5727 54.8646 35.4783 54.8903 35.384 54.9074C35.2897 54.9246 35.1953 54.9417 35.101 54.9502C35.0067 54.9588 34.8952 54.9673 34.7751 54.9588V54.2826C34.8745 54.2826 34.9637 54.2724 35.0386 54.2638C35.0607 54.2613 35.0815 54.2589 35.101 54.2569C35.1953 54.2484 35.2811 54.2312 35.3668 54.2056C35.3982 54.1962 35.4295 54.188 35.4613 54.1796C35.5164 54.1651 35.5729 54.1502 35.6327 54.1285C35.6828 54.1103 35.7353 54.0922 35.7916 54.0727C35.8412 54.0555 35.8937 54.0373 35.95 54.0173L36.0701 53.9745C36.2416 53.9146 36.4131 53.8718 36.5932 53.8461C36.7733 53.8204 36.9448 53.8461 37.1163 53.8974C37.2878 53.9574 37.4422 54.0601 37.588 54.2141C37.7338 54.3682 37.8624 54.5907 37.9739 54.8818L38.78 57.09L39.5261 56.8161L39.7491 57.4324L35.9071 58.8361L35.6756 58.2199L38.0682 57.3468L37.2964 55.2412C37.2364 55.0701 37.1678 54.9331 37.1077 54.8304C37.0391 54.7277 36.962 54.6507 36.8762 54.5993C36.7904 54.5479 36.6875 54.5308 36.576 54.5394C36.4646 54.5479 36.3188 54.5822 36.1558 54.6421L35.9843 54.702L35.9929 54.7191Z" fill="white"/>
<path d="M40.5076 52.0043L40.5039 51.9973H40.5211L40.5076 52.0043Z" fill="white"/>
<path d="M40.5076 52.0043L41.1557 53.247C41.2243 53.3839 41.2843 53.5037 41.3358 53.5979C41.3872 53.692 41.4216 53.7776 41.4559 53.8632C41.4834 53.925 41.5053 53.9922 41.5262 54.0561L41.5416 54.1029C41.5673 54.1799 41.593 54.2739 41.6187 54.368L40.9242 54.6079C40.8984 54.5223 40.8727 54.4453 40.847 54.3768C40.8212 54.3083 40.7955 54.2313 40.7698 54.1542C40.7441 54.0772 40.7012 53.9916 40.6583 53.906C40.6154 53.8119 40.564 53.7092 40.4954 53.5808L40.1609 52.9303L39.2862 53.3839L38.9774 52.7933L40.5076 52.0043Z" fill="white"/>
<path d="M43.5395 52.4851C43.2651 52.4167 43.0249 52.3396 42.8105 52.2626C42.5961 52.1856 42.416 52.1 42.2617 52.0144C42.0987 51.9202 41.9701 51.8346 41.8586 51.7576C41.7715 51.6924 41.6843 51.621 41.6024 51.5539L41.5585 51.5179C41.6185 51.4238 41.6871 51.3211 41.7643 51.2269C41.8415 51.1242 41.9186 51.0301 42.0044 50.9359C42.0173 50.9487 42.0323 50.9594 42.0473 50.9701C42.0561 50.9765 42.065 50.9828 42.0734 50.9895C42.0793 50.9942 42.0849 50.9991 42.0902 51.0044C42.1105 51.0247 42.1309 51.0397 42.1555 51.0577L42.1759 51.0729C42.2531 51.1328 42.3303 51.1927 42.416 51.2526C42.5018 51.3125 42.5961 51.3724 42.7076 51.4238C42.8191 51.4837 42.9477 51.5436 43.0935 51.6035C43.2393 51.6634 43.4194 51.7234 43.6252 51.7833C43.6525 51.7901 43.6783 51.7982 43.7034 51.8061C43.7414 51.818 43.7778 51.8295 43.8139 51.8346C43.8739 51.8517 43.9425 51.8689 44.0111 51.886C44.0556 51.8958 44.1029 51.9085 44.1547 51.9224C44.1928 51.9327 44.2334 51.9436 44.277 51.9545L44.3385 51.97C44.43 51.9932 44.5395 52.0209 44.6715 52.0486C44.7144 51.9545 44.7401 51.8603 44.7572 51.7747C44.7744 51.6891 44.783 51.595 44.783 51.5008C44.783 51.4067 44.7744 51.3125 44.7572 51.2098C44.7401 51.1071 44.7144 50.9958 44.6801 50.8674C44.6657 50.8173 44.6529 50.7687 44.6403 50.721L44.6398 50.7192C44.6225 50.6534 44.6055 50.5891 44.5857 50.5251C44.5686 50.4694 44.5514 50.4159 44.5343 50.3624C44.5172 50.3092 44.4999 50.2551 44.4828 50.1998L43.8739 50.3967L43.6767 49.8146L44.8344 49.4209L45.126 49.8917C45.1619 49.9873 45.1937 50.0913 45.2271 50.2007L45.255 50.2915L45.2718 50.3453C45.2875 50.4049 45.3032 50.4634 45.3185 50.5203C45.345 50.6186 45.3701 50.7122 45.3919 50.799C45.4217 50.9254 45.4385 51.0453 45.4537 51.1532L45.4605 51.2012C45.4776 51.3211 45.4776 51.4409 45.4776 51.5522C45.4776 51.6634 45.4519 51.7747 45.4262 51.8859C45.4004 51.9972 45.3576 52.1085 45.3061 52.2198L46.764 52.6135C46.7802 52.6458 46.7983 52.6782 46.8174 52.7123C46.8388 52.7504 46.8614 52.7909 46.8841 52.8361C46.9207 52.9092 46.9573 53.001 46.9993 53.1063L47.0213 53.1613L44.2084 55.1043L43.8311 54.565L45.915 53.1271L43.5566 52.5108L43.5395 52.4851Z" fill="white"/>
<path d="M49.6099 45.2679L49.6111 45.2697L49.5939 45.2783L49.6099 45.2679Z" fill="white"/>
<path d="M49.6099 45.2679C49.5803 45.2215 49.5485 45.175 49.5168 45.1285C49.4846 45.0814 49.4524 45.0344 49.4224 44.9873L49.2423 44.7048L50.34 43.9773C50.4258 44.0372 50.503 44.0971 50.5802 44.1656C50.6573 44.2255 50.7345 44.294 50.8117 44.3625C50.9747 44.5422 51.129 44.7305 51.2662 44.9274C51.4034 45.1242 51.5235 45.3296 51.635 45.5436C51.7465 45.7576 51.8322 45.9801 51.9008 46.2112C51.9695 46.4423 52.0123 46.682 52.0381 46.9302C52.0638 47.1956 52.0552 47.4609 52.0209 47.7348C51.9866 48.0087 51.9266 48.2911 51.8494 48.5736C51.7894 48.779 51.7207 48.993 51.635 49.207C51.5492 49.421 51.4549 49.6349 51.3434 49.866L50.7002 49.5836C50.8031 49.3696 50.8975 49.1471 50.9918 48.916C51.0861 48.6849 51.1719 48.4367 51.2491 48.1799C50.8374 48.0258 50.4344 47.8717 50.0313 47.7177C49.6282 47.5636 49.2252 47.4095 48.8135 47.2555C48.7106 47.2127 48.6249 47.187 48.5563 47.1699C48.4877 47.1528 48.419 47.1442 48.3504 47.1442C48.2818 47.1442 48.1961 47.1699 48.1103 47.2041L48.0694 47.2206L48.0074 47.2461C47.9362 47.2754 47.8501 47.3108 47.7501 47.3496C47.7287 47.294 47.7073 47.2405 47.6858 47.187C47.6644 47.1335 47.6429 47.08 47.6215 47.0244C47.5786 46.9131 47.5357 46.8018 47.5014 46.6906C47.6558 46.6135 47.7844 46.5536 47.9045 46.5023C48.016 46.4509 48.1275 46.4167 48.2304 46.3996C48.3247 46.3739 48.419 46.3739 48.522 46.3824C48.6163 46.391 48.7278 46.4167 48.8478 46.468C48.8962 46.4841 48.9445 46.5035 48.9907 46.5221C49.0183 46.5332 49.0452 46.544 49.0708 46.5536C49.148 46.5793 49.2337 46.6135 49.3194 46.6477C49.4138 46.682 49.5168 46.7248 49.6368 46.7762C49.6968 46.8018 49.761 46.8275 49.8306 46.8552C49.9003 46.883 49.9756 46.9131 50.057 46.9473C50.1216 46.9745 50.1902 47.0016 50.2629 47.0303C50.3736 47.0741 50.4936 47.1216 50.623 47.1784L50.7459 47.2278L50.8802 47.2821C51.0299 47.3427 51.1929 47.4087 51.3691 47.478C51.3863 47.2384 51.3691 47.0158 51.3263 46.7933C51.2834 46.5707 51.2062 46.3482 51.1119 46.1342C51.009 45.9202 50.8889 45.7063 50.7431 45.5008C50.5973 45.2954 50.4258 45.0814 50.2286 44.8675L49.6099 45.2679Z" fill="white"/>
<path d="M51.7812 42.5051C51.7576 42.5404 51.7351 42.5756 51.7132 42.6098C51.6715 42.6751 51.6318 42.7372 51.5925 42.7876L51.5656 42.8262C51.5166 42.8964 51.4718 42.9607 51.421 43.0187C51.3609 43.0872 51.2923 43.1642 51.2237 43.2241C51.1551 43.2926 51.0694 43.3611 50.9665 43.4295L50.7606 43.1728C50.692 43.0872 50.6234 43.0016 50.5462 42.9074C50.5834 42.8737 50.6193 42.8426 50.6533 42.8131C50.7054 42.768 50.7535 42.7262 50.7949 42.6849C50.8635 42.6164 50.9236 42.5479 50.975 42.4795L51.0062 42.4382C51.0497 42.3808 51.0966 42.3188 51.138 42.2569C51.154 42.2329 51.1717 42.2072 51.1906 42.1799C51.2322 42.1195 51.2794 42.051 51.3266 41.9745L52.6473 39.8946L53.2048 40.2455L52.7331 40.9816L55.9919 43.0529L55.5888 43.6863L52.33 41.615L51.764 42.4966L51.7812 42.5051Z" fill="white"/>
<path d="M53.779 37.5835V37.5749L53.0415 39.1412L53.6418 39.4237L54.0621 38.5335L54.7401 38.8499C54.8612 38.9063 54.9665 38.9553 55.0483 39.0043C55.1426 39.0557 55.2198 39.0985 55.2884 39.1412C55.357 39.184 55.4256 39.2268 55.4856 39.2696C55.5098 39.2869 55.5354 39.3042 55.5619 39.322C55.601 39.3483 55.6419 39.3759 55.6829 39.4066L56.0945 38.7903C56.0088 38.7304 55.9402 38.6791 55.8716 38.6277C55.8372 38.6063 55.8008 38.5827 55.7643 38.5592C55.7279 38.5357 55.6914 38.5121 55.6572 38.4907C55.6095 38.461 55.5535 38.4313 55.4922 38.3987C55.4653 38.3844 55.4372 38.3695 55.4085 38.3538C55.3249 38.3083 55.2278 38.2628 55.1054 38.2054L53.779 37.5835Z" fill="white"/>
<path d="M53.3244 35.3153L53.3296 35.317L53.1014 36.0172L54.9024 36.6077L55.7171 34.1427L56.669 34.4594C56.8234 34.5107 56.952 34.5707 57.0635 34.6391C57.175 34.7162 57.2779 34.8017 57.3636 34.8873C57.4494 34.9729 57.5266 35.0756 57.6038 35.1869C57.6809 35.2982 57.7496 35.4095 57.8267 35.5378L58.5728 36.8217L59.1903 36.4708L58.4099 35.1013C58.2041 34.7504 57.9811 34.4594 57.7324 34.2368C57.4837 34.0143 57.2007 33.8517 56.8748 33.7404L55.9829 33.4494C55.9614 33.4422 55.9415 33.4366 55.9223 33.4312C55.8957 33.4236 55.8707 33.4166 55.8457 33.4066C55.839 33.4053 55.8322 33.4037 55.8251 33.402C55.8129 33.3991 55.8002 33.3958 55.7871 33.3924C55.7592 33.3851 55.7295 33.3773 55.6999 33.3724C55.6592 33.3724 55.6185 33.367 55.5694 33.3605L55.5284 33.3552C55.4598 33.3467 55.3826 33.3381 55.2797 33.3381L54.4993 35.7005L53.3296 35.317L53.333 35.3067L53.3244 35.3153Z" fill="white"/>
<path d="M60.4469 29.9867C60.505 29.9936 60.5585 30 60.6057 30L60.6143 29.9744L60.6743 29.2297L60.6012 29.2214C60.4787 29.2075 60.3732 29.1955 60.2798 29.1955C60.1684 29.1869 60.074 29.1783 59.9797 29.1698C59.8953 29.1609 59.8086 29.1543 59.7207 29.1477C59.6391 29.1415 59.5563 29.1352 59.4737 29.127C59.3022 29.1184 59.1393 29.0928 58.9764 29.0671C58.8134 29.0414 58.6676 28.9986 58.5218 28.9472C58.376 28.8959 58.2559 28.8189 58.153 28.7247L61.0088 26.6362L60.58 26.0799L59.285 27.0129L59.2544 26.9711C59.1721 26.8587 59.0955 26.7543 59.0192 26.6705C58.9334 26.5763 58.8391 26.4907 58.7362 26.4223C58.6333 26.3538 58.5132 26.2853 58.3846 26.2254C58.2559 26.1655 58.1016 26.1056 57.9215 26.0371C57.7757 25.9857 57.6299 25.9344 57.467 25.8745C57.3338 25.8255 57.212 25.788 57.097 25.7525L57.021 25.729L56.455 25.7119L56.1549 26.9016L56.7552 27.0642L56.9267 26.4479C57.0381 26.4822 57.1497 26.5164 57.2611 26.5592C57.3169 26.5806 57.3726 26.5999 57.4284 26.6191C57.4841 26.6384 57.5399 26.6576 57.5956 26.679C57.7241 26.7304 57.8356 26.7731 57.947 26.8159C58.0499 26.8587 58.153 26.9101 58.2474 26.9615C58.3417 27.0129 58.4275 27.0813 58.5046 27.1498C58.5904 27.2268 58.659 27.3124 58.7276 27.4237L58.7019 27.4408C58.6347 27.4911 58.5728 27.5387 58.5157 27.5827C58.4269 27.6511 58.3495 27.7106 58.2817 27.7575L58.215 27.8089C58.1347 27.871 58.0683 27.9223 58.0072 27.9629C57.9676 27.9976 57.928 28.0265 57.8916 28.053L57.8733 28.0663L57.8544 28.0803C57.846 28.0867 57.8378 28.0929 57.83 28.0991L57.8186 28.1084C57.7857 28.1272 57.7554 28.1485 57.7235 28.171C57.6971 28.1895 57.6695 28.2089 57.6385 28.2283L57.5453 28.286C57.402 28.3748 57.2714 28.4558 57.1582 28.5193C57.021 28.5963 56.8924 28.6562 56.7809 28.7076C56.6608 28.7589 56.5579 28.8017 56.4636 28.8274C56.4007 28.8502 56.3378 28.8655 56.2749 28.8807C56.2435 28.8883 56.212 28.8959 56.1806 28.9044C56.1692 28.9073 56.1577 28.9111 56.1463 28.9149C56.1234 28.9225 56.1006 28.9301 56.0777 28.9301L55.9748 28.9558C55.9876 29.0157 56.0005 29.0777 56.0133 29.1397C56.0262 29.2017 56.0391 29.264 56.0519 29.3239C56.0863 29.4437 56.1206 29.5635 56.1549 29.6662L56.1985 29.6584C56.2805 29.6437 56.3678 29.6281 56.455 29.6063C56.5579 29.5806 56.6694 29.5464 56.7723 29.5122C56.8667 29.4779 56.9867 29.4266 57.1068 29.3666C57.2133 29.3135 57.3333 29.2469 57.4668 29.1728L57.5184 29.1441C57.6299 29.2468 57.7414 29.341 57.8529 29.4266C57.9644 29.5122 58.0844 29.5806 58.2216 29.6405C58.3589 29.7005 58.5046 29.7433 58.6762 29.7861C58.8391 29.8288 59.0363 29.8545 59.2507 29.8802L59.6281 29.9144C59.6956 29.9189 59.7608 29.9258 59.8248 29.9325C59.8828 29.9386 59.9398 29.9446 59.9968 29.9487C60.1169 29.9572 60.2284 29.9658 60.3313 29.9744C60.3713 29.9777 60.41 29.9823 60.4469 29.9867Z" fill="white"/>
<path d="M56.1716 22.8359L56.3174 22.8102C56.3515 22.8041 56.3912 22.7979 56.4362 22.7909C56.5154 22.7785 56.6111 22.7636 56.7204 22.7418C56.892 22.7161 57.0892 22.6819 57.3122 22.6391C57.4778 22.6136 57.6575 22.5835 57.8445 22.5521L57.8461 22.5519L57.8472 22.5517L58.0411 22.5192C58.1542 22.501 58.2674 22.4813 58.3818 22.4613C58.5363 22.4343 58.6932 22.4069 58.8558 22.3823C59.1003 22.3379 59.3448 22.2999 59.5837 22.2628L59.5849 22.2626L59.6963 22.2453C59.7526 22.2378 59.8041 22.2303 59.8506 22.2235C59.91 22.2149 59.9617 22.2073 60.005 22.2025C60.0822 22.194 60.1594 22.1854 60.228 22.1769C60.2734 22.1712 60.315 22.173 60.3579 22.1749C60.3798 22.1759 60.402 22.1769 60.4252 22.1769C60.4852 22.1769 60.571 22.1769 60.6653 22.1854L60.8368 24.7446L60.1765 24.7874L60.0564 22.9215L56.8834 23.4607L56.952 24.5135L56.2916 24.5563L56.1802 22.8359H56.1716Z" fill="white"/>
<path d="M56.5142 20.3716C56.5022 20.2994 56.4889 20.2196 56.4717 20.1398L56.4803 20.1483L56.2745 19.1212L60.0564 18.3509L59.9106 17.6234L56.1287 18.3937L55.9572 17.5378L55.3054 17.6661L55.7942 20.0799C55.8111 20.164 55.8242 20.2407 55.8362 20.3101C55.8424 20.3463 55.8484 20.3815 55.8542 20.4137C55.8699 20.4993 55.8784 20.585 55.8862 20.6642L55.8886 20.6876C55.8971 20.7732 55.9057 20.8673 55.8971 20.9615C55.894 20.9962 55.892 21.0333 55.8898 21.0728C55.8862 21.1401 55.8822 21.2143 55.8714 21.2953C55.9271 21.3038 55.9827 21.3102 56.0384 21.3166C56.0942 21.3231 56.1501 21.3295 56.2059 21.3381C56.3088 21.3466 56.4203 21.3637 56.5317 21.3809L56.5357 21.3532C56.5514 21.2439 56.566 21.1425 56.566 21.0556V20.7646L56.5641 20.7429C56.5561 20.6548 56.5476 20.5605 56.5317 20.4736C56.526 20.4422 56.5203 20.4078 56.5142 20.3716Z" fill="white"/>
<path fill-rule="evenodd" clip-rule="evenodd" d="M54.148 14.5506C54.0537 14.3024 54.0022 14.0884 54.0022 13.883C54.0022 13.6776 54.0365 13.4978 54.1223 13.3352C54.1823 13.2239 54.2681 13.1212 54.371 13.0271C54.4825 12.9329 54.6025 12.8388 54.7312 12.7617C54.8598 12.6847 54.997 12.6077 55.1428 12.5392C55.2886 12.4707 55.4258 12.4108 55.563 12.3595C55.7774 12.2824 56.0004 12.2054 56.2319 12.1455C56.5149 12.077 56.7808 12.0428 57.0295 12.0599C57.2782 12.0684 57.5012 12.1284 57.6984 12.214C57.8957 12.3081 58.0757 12.4365 58.2301 12.6077C58.3845 12.7789 58.5045 12.9843 58.5989 13.2325C58.7189 13.5492 58.7704 13.8316 58.7447 14.097C58.7275 14.3623 58.6503 14.5934 58.5217 14.7988C58.3931 15.0043 58.213 15.1926 57.99 15.3466C57.767 15.5093 57.5097 15.6376 57.2267 15.7489C57.0638 15.8088 56.8923 15.8602 56.7208 15.9115C56.5407 15.9543 56.352 15.9886 56.1462 16.0057C56.103 16.0057 56.0608 16.0067 56.0189 16.0076C55.936 16.0095 55.8543 16.0114 55.7688 16.0057C55.6488 16.0057 55.5201 15.9886 55.4001 15.9629C55.4344 16.0827 55.4687 16.2111 55.4858 16.3309C55.503 16.4508 55.5116 16.5877 55.5116 16.7418H55.1771C55.0657 16.7418 54.9541 16.7418 54.8341 16.7504C54.8341 16.622 54.8169 16.5107 54.7998 16.4251C54.7912 16.3823 54.7826 16.3373 54.774 16.2923L54.7738 16.2911C54.7653 16.2466 54.7568 16.2022 54.7483 16.1598C54.7226 16.0742 54.6969 15.9886 54.6711 15.8944L54.6486 15.8318C54.6211 15.7549 54.5914 15.6715 54.5511 15.5777L54.148 14.5164V14.5506ZM55.1428 15.2953C55.3744 15.3466 55.5973 15.3638 55.8374 15.3466C56.069 15.3295 56.292 15.2867 56.5064 15.2268C56.5492 15.214 56.5899 15.2012 56.6305 15.1883C56.6713 15.1755 56.7122 15.1626 56.7551 15.1498C56.7979 15.1369 56.8387 15.122 56.8794 15.107C56.9202 15.092 56.9609 15.077 57.0038 15.0642C57.1924 14.9957 57.3554 14.9101 57.5097 14.8245C57.6641 14.7304 57.7927 14.6191 57.8785 14.4907C57.9814 14.3538 58.0414 14.1997 58.0672 14.0285C58.0929 13.8573 58.0672 13.6861 57.99 13.4978C57.9385 13.3609 57.8614 13.2411 57.7756 13.1383C57.6898 13.0356 57.5783 12.9586 57.4583 12.8987C57.3382 12.8388 57.201 12.8045 57.0552 12.796C56.9094 12.7874 56.7465 12.796 56.575 12.8388C56.5265 12.8517 56.4793 12.8646 56.4338 12.877C56.3583 12.8976 56.2875 12.9169 56.2234 12.9329C56.1119 12.9672 56.009 13.0014 55.9146 13.0356C55.7688 13.087 55.6402 13.1469 55.5116 13.2068C55.3829 13.2667 55.2543 13.3352 55.1257 13.4122C55.0142 13.4722 54.9284 13.5321 54.8684 13.592C54.7998 13.6519 54.7569 13.7204 54.7312 13.7974C54.7054 13.8744 54.7054 13.96 54.714 14.0627C54.7312 14.1655 54.7655 14.2853 54.8169 14.4222L55.1428 15.2867V15.2953Z" fill="white"/>
<path d="M53.1717 10.9354C53.1407 10.8826 53.1082 10.8275 53.0758 10.7674H53.0844L52.6299 9.99705C52.5355 9.84298 52.4755 9.70603 52.4498 9.59476C52.4155 9.48349 52.4155 9.38078 52.4498 9.28663C52.4841 9.19248 52.5441 9.10688 52.6384 9.02129C52.7328 8.9357 52.8614 8.85011 53.0158 8.75595L55.5199 7.29232L55.1426 6.65038L52.5613 8.15681C52.2954 8.31943 52.0896 8.49062 51.9609 8.6618C51.8323 8.83299 51.7551 9.01273 51.7294 9.18392C51.6951 9.36366 51.7122 9.5434 51.7637 9.71459C51.8152 9.89433 51.8838 10.057 51.9781 10.211L52.4069 10.9386C52.4169 10.9548 52.4267 10.9707 52.4364 10.9862C52.4927 11.0771 52.5418 11.1565 52.5784 11.2296C52.6212 11.3151 52.6642 11.4008 52.6985 11.4778C52.7328 11.5634 52.7671 11.649 52.7928 11.7346L52.7983 11.7529C52.8233 11.8358 52.8546 11.9398 52.8786 12.0513C52.9343 12.0384 52.99 12.0277 53.0458 12.017C53.1015 12.0063 53.1573 11.9956 53.213 11.9828C53.2688 11.9742 53.3224 11.9635 53.376 11.9528C53.4296 11.9421 53.4832 11.9314 53.5389 11.9229C53.5218 11.803 53.496 11.7003 53.4703 11.6062C53.4446 11.512 53.4103 11.4179 53.376 11.3323C53.3417 11.2467 53.2988 11.1611 53.2473 11.067C53.2237 11.0237 53.1982 10.9804 53.1717 10.9354Z" fill="white"/>
<path d="M55.6316 10.6137C55.6878 10.5828 55.7483 10.5494 55.8115 10.5106L56.995 9.82586L56.6176 9.18392L55.4513 9.8601C55.3682 9.90851 55.2906 9.95133 55.2232 9.98856C55.2072 9.99741 55.1917 10.0059 55.1769 10.0142C55.0997 10.057 55.0225 10.0998 54.9453 10.134C54.8939 10.1625 54.8424 10.1834 54.791 10.2044C54.7652 10.2148 54.7395 10.2253 54.7138 10.2367C54.6366 10.2709 54.5509 10.3052 54.4479 10.3394C54.4694 10.395 54.493 10.4528 54.5165 10.5106C54.5401 10.5684 54.5637 10.6261 54.5852 10.6818C54.6066 10.7374 54.6302 10.7951 54.6537 10.8529C54.6773 10.9107 54.7009 10.9685 54.7224 11.0242C54.8339 10.9899 54.9282 10.9557 55.0139 10.9214C55.0698 10.8991 55.1257 10.8732 55.1792 10.8484C55.2078 10.8351 55.2358 10.8221 55.2626 10.8102C55.3398 10.7759 55.4256 10.7331 55.5113 10.6818C55.5485 10.6596 55.5888 10.6373 55.6316 10.6137Z" fill="white"/>
</g>
</g>
<defs>
<clipPath id="clip0_374_2379">
<rect width="61" height="59.8634" fill="white" transform="translate(0 0.0683594)"/>
</clipPath>
</defs>
</svg>
