<svg width="349" height="322" viewBox="0 0 349 322" fill="none" xmlns="http://www.w3.org/2000/svg">
    <path d="M260.125 44.2439C253.272 44.4211 248.072 50.3248 248.484 57.4568C248.724 61.5332 247.126 64.1122 243.518 66.0006C241.478 67.064 239.37 68.1702 237.692 69.6919C229.339 77.2396 226.61 86.5045 229.997 97.2668C231.828 103.085 230.999 108.335 227.594 113.273C226.899 114.281 226.057 115.179 225.332 116.169C218.602 125.367 219.733 138.054 227.993 146.134C236.161 154.121 248.072 154.757 257.464 147.717C257.851 147.429 258.287 147.203 258.914 146.812V146.86C258.885 146.83 258.914 146.812 258.914 146.812L261.76 147.087C265.367 148.817 268.268 150.699 271.44 151.64C280.942 154.451 290.769 150.632 296.288 142.381C301.85 134.064 301.482 123.075 295.034 115.173C290.345 109.422 289.091 103.397 291.396 96.2645C295.145 84.6527 289.435 71.5681 278.452 66.3673C274.199 64.3505 272.448 61.3987 272.583 56.8518C272.804 49.6525 267.162 44.0667 260.106 44.25L260.125 44.2439Z" fill="#C6E4CD"/>
    <path d="M258.536 84.0447C258.536 83.2305 259.196 82.5706 260.01 82.5706C260.824 82.5706 261.484 83.2305 261.484 84.0447V201.667H258.536V84.0447Z" fill="#B57C2B"/>
    <rect x="273.22" y="103.026" width="2.94823" height="30.0965" rx="1.47412" transform="rotate(30 273.22 103.026)" fill="#B57C2B"/>
    <path d="M186.989 1.16215C182.818 5.13287 179.25 9.59172 176.248 14.4886C171.474 22.2705 168.403 30.6281 168.44 39.8399C168.475 48.3227 172.574 54.4493 180.25 58.0414C182.419 59.0552 187.285 59.8093 187.285 59.8093H188.941C188.941 59.8093 189.743 59.8375 190.036 59.8093C199.623 58.8205 207.103 51.3046 207.917 41.7455C208.323 36.9925 207.553 32.3209 206.169 27.7776C203.017 17.4111 197.154 8.70933 189.438 1.1778C188.319 0.0826433 188.152 0.0669987 186.995 1.16841L186.989 1.16215Z" fill="#2B5B34"/>
    <path d="M188.325 24.9712C188.325 24.5528 188.664 24.2136 189.082 24.2136C189.501 24.2136 189.84 24.5528 189.84 24.9712V85.4223H188.325V24.9712Z" fill="#B57C2B"/>
    <rect x="195.873" y="34.7275" width="1.51522" height="15.4679" rx="0.757611" transform="rotate(30 195.873 34.7275)" fill="#B57C2B"/>
    <rect x="180.752" y="42.5859" width="1.51522" height="15.4679" rx="0.757611" transform="rotate(-30 180.752 42.5859)" fill="#B57C2B"/>
    <path d="M145.283 27.7004L318.803 223.899L144.72 321.984L145.283 27.7004Z" fill="white"/>
    <path d="M145.283 162.576V27.7004L223.976 116.67L145.283 162.576Z" fill="#2B5B34"/>
    <path d="M145.283 27.7004L78.9426 118.399L145.283 162.576V27.7004Z" fill="#EC1E26"/>
    <path d="M71.2585 128.992L36.74 176.281L144.453 248.248V176.281L71.2585 128.992Z" fill="#E58586"/>
    <path d="M144.453 176.944V248.248L274.953 174.725L232.71 126.446L144.453 176.944Z" fill="#6D8F6E"/>
    <path d="M30.3728 184.969L0.551758 225.657L144.72 321.985V261.627L30.3728 184.969Z" fill="#F7DEDF"/>
    <path d="M144.72 261.627V321.985L318.803 223.899L281.364 181.912L144.72 261.627Z" fill="#BBDFC3"/>
    <g style="mix-blend-mode:overlay" opacity="0.6">
    <path d="M144.72 321.984L0.551758 225.657L145.283 27.7004L144.72 321.984Z" fill="url(#paint0_radial_936_14072)" fill-opacity="0.69"/>
    </g>
    <g style="mix-blend-mode:overlay" opacity="0.6">
    <path d="M145.957 321.984L318.803 225.657L145.283 27.7004L145.957 321.984Z" fill="url(#paint1_radial_936_14072)"/>
    </g>
    <path d="M235.334 72.5055C235.193 67.1703 235.605 58.0647 230.948 54.3153C226.86 51.0228 223.681 55.4916 222.537 59.0939C219.755 67.8372 220.052 100.741 220.773 107.368C220.773 107.368 220.063 100.731 214.878 103.577C209.694 106.423 217.489 121.363 217.489 121.363C217.489 121.363 211.359 116.857 208.53 120.649C205.7 124.44 212.069 128.714 212.069 128.714C212.069 128.714 206.175 127.055 206.175 128.714C206.175 130.374 208.06 131.797 213.484 132.511H242.722C242.722 132.511 247.42 129.886 246.496 127.055C245.572 124.225 240.581 125.863 240.581 125.863C240.581 125.863 248.125 116.616 247.65 112.583C247.175 108.55 237.511 113.292 237.511 113.292C237.511 113.292 245.061 94.0827 243.646 85.5443C242.528 78.8174 237.339 83.4438 234.514 86.0064C235.178 81.5387 235.453 77.0212 235.334 72.5055Z" fill="#2F423B"/>
    <path d="M226.008 90.5585C226.008 90.0548 226.417 89.6465 226.92 89.6465C227.424 89.6465 227.832 90.0548 227.832 90.5585V162.418C227.832 162.921 227.424 163.33 226.92 163.33C226.417 163.33 226.008 162.921 226.008 162.418V90.5585Z" fill="#B57C2B"/>
    <rect x="235.093" y="102.303" width="1.82403" height="18.6203" rx="0.912013" transform="rotate(30 235.093 102.303)" fill="#B57C2B"/>
    <path d="M259.533 155.209C258.678 152.147 256.884 149.741 254.161 148.001C253.051 147.288 252.185 147.382 251.131 148.048C248.518 149.71 246.74 152.006 245.942 154.949C245.498 156.579 244.612 157.329 243.037 157.798C239.276 158.907 238.468 160.131 238.494 164.063C238.494 164.615 238.468 165.172 238.515 165.719C238.671 167.396 237.91 168.448 236.476 169.287C232.131 171.823 231.766 172.625 232.861 177.656C233.331 179.823 233.039 181.552 231.27 182.62C228.146 185.343 227.567 187.13 229.273 190.552C230.587 193.177 230.222 195.208 228.522 197.468C226.389 200.296 226.384 202.072 228.548 204.796C230.311 207.004 230.467 209.014 229.309 211.546C227.62 215.254 228.037 216.774 231.182 219.425C232.846 220.826 233.498 222.342 232.84 224.425C232.637 225.066 232.58 225.748 232.449 226.41C231.938 228.982 232.872 231.071 235.167 232.081C238.035 233.342 238.88 235.3 238.489 238.211C238.124 240.94 239.391 242.924 241.681 244.346C244.497 246.096 247.256 247.935 250.114 249.601L255.215 249.56C257.974 247.95 260.613 246.159 263.351 244.508C265.922 242.961 267.258 240.805 266.825 237.779C266.444 235.107 267.414 233.44 269.886 232.222C272.734 230.816 273.349 229.118 272.807 225.982C272.713 225.441 272.63 224.889 272.468 224.363C271.832 222.269 272.525 220.743 274.21 219.384C277.178 216.993 277.73 215.212 276.124 211.827C274.831 209.108 275.018 206.952 276.88 204.572C278.935 201.947 278.925 200.166 276.922 197.551C275.123 195.192 274.731 193.072 276.161 190.322C277.741 187.276 277.151 185.51 274.596 183.125C274.236 182.786 273.881 182.453 273.506 182.13C272.421 181.213 272.004 180.089 272.332 178.677C272.515 177.901 272.645 177.115 272.776 176.328C273.355 172.865 272.817 171.381 269.74 169.808C267.435 168.631 266.632 167.079 266.788 164.537C267.065 160.063 266.235 158.996 261.906 157.631C260.582 157.214 259.888 156.511 259.518 155.183L259.533 155.209ZM259.7 184.958C259.596 184.969 259.492 184.979 259.387 185C259.486 184.984 259.591 184.974 259.7 184.958ZM259.492 184.406C259.518 184.203 259.539 183.995 259.575 183.802C259.544 184 259.523 184.208 259.492 184.406Z" fill="#387A3A"/>
    <path d="M251.314 189.971C251.314 189.305 251.853 188.766 252.518 188.766C253.184 188.766 253.723 189.305 253.723 189.971V284.888C253.723 285.553 253.184 286.093 252.518 286.093C251.853 286.093 251.314 285.553 251.314 284.888V189.971Z" fill="#B57C2B"/>
    <rect x="263.314" y="211.506" width="2.40933" height="24.5953" rx="1.20467" transform="rotate(30 263.314 211.506)" fill="#B57C2B"/>
    <rect x="263.314" y="191.777" width="2.40933" height="24.5953" rx="1.20467" transform="rotate(30 263.314 191.777)" fill="#B57C2B"/>
    <path d="M224.312 182.548C223.223 183.289 222.28 184.296 221.126 184.888C221.036 184.935 220.943 184.978 220.848 185.017C219.366 185.635 217.419 184.366 217.457 182.755C217.46 182.646 217.467 182.538 217.482 182.43C217.864 179.533 218.759 176.69 218.965 173.793C219.378 167.892 215.05 163.242 209.568 163.331C204.074 163.42 199.858 168.171 200.399 174.024C200.676 177.063 201.554 180.043 202.001 183.076C202.125 183.911 201.889 185.368 201.389 185.599C200.647 185.943 199.393 185.688 198.598 185.244C197.155 184.444 195.954 183.212 194.547 182.341C191.255 180.309 187.51 181.091 185.119 184.183C183.058 186.849 183.329 190.771 185.82 193.372C187.551 195.184 189.347 196.932 191.114 198.709L191.125 198.697C192.939 200.522 194.776 202.335 196.572 204.177C198.127 205.777 198.344 207.761 197.161 209.035C195.865 210.433 193.922 210.314 192.209 208.638C190.313 206.79 188.499 204.87 186.627 202.998C184.601 200.96 182.169 199.9 179.278 200.297C175.663 200.795 173.107 202.785 171.912 206.262C170.74 209.669 171.311 212.98 174.067 215.267C179.896 220.089 185.955 224.633 191.944 229.248C193.781 230.67 194.317 232.559 193.145 234.094C192.02 235.569 190.207 235.64 188.346 234.277C186.774 233.134 185.261 231.908 183.635 230.853C180.85 229.046 177.924 228.792 174.991 230.521C172 232.287 170.705 235 170.911 238.418C171.111 241.759 172.895 243.91 175.975 245.16C180.933 247.162 185.849 249.253 190.76 251.35C192.968 252.292 193.728 253.815 193.051 255.598C192.415 257.269 190.99 257.837 188.699 257.168C186.432 256.51 184.607 257.162 183.07 258.838C181.557 260.491 181.139 262.476 182.087 264.46C182.97 266.32 184.012 268.198 185.367 269.727C188.417 273.175 192.609 274.513 196.972 275.313C200.111 275.888 206.179 276.302 209.329 276.759L213.731 276.616C215.456 276.456 217.193 276.273 218.883 275.9C222.057 275.207 225.295 274.638 228.34 273.53C232.644 271.972 235.7 268.897 237.307 264.496C238.061 262.422 237.861 260.503 236.348 258.838C234.805 257.144 232.944 256.564 230.695 257.18C228.298 257.837 226.844 257.227 226.261 255.432C225.684 253.667 226.532 252.209 228.728 251.291C233.657 249.224 238.568 247.115 243.531 245.13C246.658 243.88 248.289 241.611 248.495 238.312C248.707 234.959 247.335 232.275 244.509 230.545C241.647 228.792 238.674 228.952 235.871 230.8C234.363 231.795 232.956 232.938 231.502 234.011C229.223 235.687 227.397 235.699 226.202 234.058C225.001 232.399 225.549 230.628 227.792 228.963C227.963 228.839 228.145 228.738 228.31 228.608C233.763 224.426 239.257 220.285 244.65 216.031C246.688 214.42 247.848 212.186 247.959 209.515C248.113 205.806 246.069 202.388 242.707 200.972C239.062 199.438 235.747 200.214 232.897 202.868C230.766 204.858 228.769 207.009 226.691 209.064C225.401 210.338 223.923 210.309 222.534 209.325C221.274 208.437 221.138 206.405 222.169 204.977C222.575 204.414 223.087 203.934 223.576 203.443C226.915 200.084 230.289 196.772 233.568 193.354C236.183 190.629 236.253 186.601 233.91 183.828C231.46 180.937 227.503 180.392 224.341 182.554L224.312 182.548Z" fill="#2B5B34"/>
    <path d="M208.025 215.192C208.025 214.453 208.625 213.854 209.364 213.854C210.103 213.854 210.702 214.453 210.702 215.192V320.647C210.702 321.386 210.103 321.985 209.364 321.985C208.625 321.985 208.025 321.386 208.025 320.647V215.192Z" fill="#B57C2B"/>
    <path d="M333.597 192.772C331.632 193.151 331.549 193.068 331.971 191.132C333.515 184.078 328.979 176.835 322.017 175.218C312.129 172.919 303.513 181.519 305.715 191.479C306.027 192.886 305.829 193.115 304.491 192.867C295.212 191.136 287.961 198.079 289.287 207.424C289.871 211.533 291.462 215.282 293.463 218.875C299.277 229.312 307.361 237.75 316.676 245.091L317.809 245.344L318.846 245.345L319.779 245.344H320.702C323.903 242.517 327.172 239.772 330.262 237.134C332.938 234.043 335.543 231.196 337.951 228.192C339.66 226.059 341.211 223.784 342.648 221.457C345.415 216.966 347.724 212.254 348.372 206.923C349.441 198.095 342.131 191.108 333.597 192.764L333.597 192.772Z" fill="#204E37"/>
    <path d="M317.142 202.617C317.142 202.092 317.567 201.667 318.091 201.667C318.616 201.667 319.041 202.092 319.041 202.617V277.432C319.041 277.956 318.616 278.381 318.091 278.381C317.567 278.381 317.142 277.956 317.142 277.432V202.617Z" fill="#B57C2B"/>
    <rect x="326.6" y="214.843" width="1.89906" height="19.3863" rx="0.949532" transform="rotate(30 326.6 214.843)" fill="#B57C2B"/>
    <path d="M23.2031 128.593C23.2031 128.069 23.6282 127.644 24.1525 127.644C24.6769 127.644 25.1019 128.069 25.1019 128.593V224.021C25.1019 224.545 24.6769 224.97 24.1525 224.97C23.6282 224.97 23.2031 224.545 23.2031 224.021V128.593Z" fill="#B57C2B"/>
    <rect width="2.03847" height="23.4014" rx="1.01923" transform="matrix(0.866025 -0.5 0.666004 0.745948 7.61768 158.851)" fill="#B57C2B"/>
    <rect width="2.03847" height="23.4014" rx="1.01923" transform="matrix(0.806696 0.590967 -0.414157 0.910205 32.6604 130.655)" fill="#B57C2B"/>
    <defs>
    <radialGradient id="paint0_radial_936_14072" cx="0" cy="0" r="1" gradientUnits="userSpaceOnUse" gradientTransform="translate(255.398 -121.88) scale(444.591 444.591)">
    <stop offset="0.3" stop-color="white"/>
    <stop offset="0.48" stop-color="#FCFCFC"/>
    <stop offset="0.57" stop-color="#F5F5F5"/>
    <stop offset="0.64" stop-color="#E7E8E8"/>
    <stop offset="0.69" stop-color="#D8D9DA"/>
    <stop offset="0.78" stop-color="#C7C7C8"/>
    <stop offset="0.97" stop-color="#9B9B9C"/>
    <stop offset="1" stop-color="#949494"/>
    </radialGradient>
    <radialGradient id="paint1_radial_936_14072" cx="0" cy="0" r="1" gradientUnits="userSpaceOnUse" gradientTransform="translate(13.264 -121.88) rotate(180) scale(533.025 444.591)">
    <stop offset="0.3" stop-color="white"/>
    <stop offset="0.48" stop-color="#FCFCFC"/>
    <stop offset="0.57" stop-color="#F5F5F5"/>
    <stop offset="0.64" stop-color="#E7E8E8"/>
    <stop offset="0.69" stop-color="#D8D9DA"/>
    <stop offset="0.78" stop-color="#C7C7C8"/>
    <stop offset="0.97" stop-color="#9B9B9C"/>
    <stop offset="1" stop-color="#949494"/>
    </radialGradient>
    </defs>
    </svg>
    