<svg width="146" height="55" viewBox="0 0 146 55" fill="none" xmlns="http://www.w3.org/2000/svg">
    <g clip-path="url(#clip0_848_25850)">
    <path d="M124.127 0.439453C124.154 0.502713 124.166 0.597602 124.214 0.629232C124.673 0.905993 124.76 1.11159 124.519 1.59789C124.341 1.95768 124.428 2.14746 124.776 2.32538C125.149 2.51516 125.505 2.74448 125.834 2.99751C126.163 3.25055 126.266 2.98961 126.393 2.79587C126.761 2.22258 127.264 2.33724 127.589 2.75238C127.799 3.01728 127.862 3.28614 127.573 3.50754C127.225 3.7764 127.434 3.9385 127.656 4.0927C127.89 4.2548 128.144 4.38923 128.429 4.55924C127.767 5.62674 127.129 6.66657 126.484 7.70245C124.97 10.1379 123.453 12.5695 121.936 15.005C121.595 15.5506 121.254 16.0923 120.922 16.6458C120.636 17.1281 120.331 17.2112 119.904 16.8276C119.622 16.5786 119.476 16.6655 119.258 16.8909C118.779 17.3812 118.517 17.3733 118.073 16.9186C117.895 16.7367 117.804 16.5983 118.01 16.3453C118.26 16.0369 118.264 15.7483 117.816 15.5348C117.416 15.345 117.063 15.0445 116.671 14.831C116.588 14.7836 116.366 14.8508 116.303 14.9338C116.005 15.341 115.582 15.4992 115.225 15.2857C114.928 15.1078 114.876 14.6571 115.098 14.2301C115.142 14.147 115.166 14.0521 115.209 13.9335C115.043 13.8228 114.869 13.7042 114.698 13.5895C114.528 13.4749 114.357 13.3602 114.179 13.2416C115.269 11.498 116.33 9.80188 117.384 8.10177C118.715 5.9549 120.042 3.80407 121.369 1.65325C121.536 1.38439 121.663 1.08391 121.865 0.846687C121.94 0.759705 122.193 0.747844 122.328 0.803196C122.593 0.905993 122.831 1.076 123.085 1.21834C123.338 0.953438 123.58 0.696445 123.822 0.443407C123.921 0.443407 124.02 0.443407 124.119 0.443407L124.127 0.439453Z" fill="#F5F9F0"/>
    <path d="M94.32 31.2983H101.728C101.831 31.9586 101.93 32.6228 102.037 33.2871C102.259 34.6511 102.722 35.94 103.309 37.1854C104.743 40.2298 106.902 42.6297 109.734 44.4287C111.573 45.595 113.573 46.3897 115.712 46.7811C116.715 46.967 117.745 47.0658 118.767 47.0737C119.634 47.0777 120.51 46.9235 121.373 46.793C123.089 46.532 124.725 46.0141 126.27 45.2273C128.247 44.2191 130.017 42.95 131.444 41.2301C131.705 40.9138 132.01 40.7557 132.462 40.7596C135.005 40.7873 137.544 40.7715 140.088 40.7715C140.234 40.7715 140.381 40.7715 140.666 40.7715C139.699 42.7365 138.535 44.4563 137.152 46.0299C132.664 51.1421 126.979 53.9532 120.221 54.3841C113.193 54.8309 107.005 52.5575 101.894 47.7458C96.5068 42.6732 94.534 36.4184 94.32 31.2983Z" fill="#78CCE5"/>
    <path d="M117.499 38.3715C117.927 37.6875 118.355 37.0153 118.775 36.3432C119.801 34.6985 120.846 33.0616 121.833 31.3931C122.086 30.9622 122.407 30.9503 122.792 30.9503C125.236 30.9503 127.676 30.9622 130.12 30.9622C131.852 30.9622 133.587 30.9543 135.318 30.9503C135.429 30.9503 135.544 30.9345 135.726 30.9187C135.73 27.3485 135.009 23.9918 133.056 20.979C131.103 17.9623 128.476 15.7048 125.077 14.313C125.382 13.8228 125.672 13.3642 125.957 12.9055C126.836 11.494 127.688 10.0667 128.599 8.67899C129.249 7.69056 129.035 7.80522 129.918 8.27571C131.776 9.26809 133.535 10.4147 135.088 11.8459C137.552 14.1193 139.557 16.7367 140.963 19.789C141.775 21.5523 142.342 23.3987 142.734 25.2965C142.908 26.1466 142.98 27.0243 143.047 27.8941C143.126 28.9023 143.154 29.9145 143.205 30.9701H145.994V38.3754H117.503L117.499 38.3715Z" fill="#F5F9F0"/>
    <path d="M118.759 32.0335C117.38 30.4797 116.053 29.001 114.75 27.5065C113.629 26.2176 112.539 24.901 111.422 23.6081C110.642 22.7067 109.833 21.8289 109.049 20.9314C108.32 20.1012 107.591 19.2669 106.89 18.4129C106.688 18.1678 106.553 18.1875 106.391 18.3971C105.666 19.3262 104.87 20.2119 104.236 21.1963C103.075 22.9953 102.386 25.0038 101.958 27.0953C101.883 27.4551 101.875 27.8346 101.847 28.2023C101.815 28.6175 101.724 28.8587 101.185 28.8468C99.2204 28.8033 97.2595 28.831 95.2946 28.831C95.0806 28.831 94.8588 28.8152 94.6567 28.8705C94.2527 28.9852 94.1774 28.7756 94.221 28.4593C94.3081 27.8228 94.3874 27.1823 94.5181 26.5536C94.7994 25.2094 95.045 23.8532 95.4292 22.5406C96.2334 19.8007 97.6041 17.3335 99.3314 15.072C99.9335 14.2852 100.655 13.5854 101.352 12.8737C101.649 12.5693 101.696 12.3914 101.376 12.0435C100.187 10.7466 99.0461 9.40632 97.8022 7.98693C98.1667 7.65482 98.5351 7.30294 98.9194 6.97083C99.9929 6.04961 101.078 5.1363 102.16 4.22299C102.509 3.93041 102.869 3.65365 103.206 3.34921C103.439 3.13571 103.614 3.19897 103.788 3.40061C104.763 4.53928 105.725 5.68586 106.708 6.81663C107.456 7.67854 108.233 8.51673 108.982 9.37865C109.976 10.5213 110.954 11.6797 111.945 12.8263C113.086 14.1468 114.235 15.4555 115.376 16.7721C116.164 17.6815 116.944 18.6027 117.737 19.512C118.454 20.3344 119.191 21.137 119.912 21.9594C120.858 23.0388 121.805 24.1142 122.728 25.2133C122.807 25.3082 122.78 25.5889 122.7 25.7154C121.73 27.2732 120.739 28.8152 119.761 30.365C119.42 30.9067 119.103 31.4602 118.763 32.0295L118.759 32.0335Z" fill="#F5F9F0"/>
    <path d="M31.1415 14.4871H29.6559C29.6956 13.807 29.7312 13.1665 29.7708 12.4588C29.9649 12.4588 30.1551 12.4588 30.3453 12.4588C31.9774 12.4509 33.6096 12.4311 35.2417 12.4351C36.1251 12.4351 36.9491 12.6644 37.7335 13.0835C38.6288 13.5619 39.0567 14.3764 39.227 15.2739C39.5994 17.2231 39.4568 19.1208 38.2445 20.8012C37.5632 21.7461 36.6005 22.2641 35.4675 22.438C33.7403 22.7029 31.9576 22.1415 31.0623 20.477C30.0996 18.682 30.0798 16.8554 30.9236 15.009C30.9949 14.8548 31.0583 14.6927 31.1455 14.4831L31.1415 14.4871ZM34.5524 14.6017C34.5524 14.6017 34.5524 14.582 34.5524 14.5741C34.4058 14.5741 34.2513 14.5978 34.1087 14.5701C33.5937 14.4713 33.3639 14.7045 33.1817 15.179C32.6905 16.4718 32.5677 17.7726 33.0391 19.0773C33.2372 19.6309 33.6294 20.1369 34.2315 20.2635C35.3051 20.4849 36.244 20.1725 36.6877 18.9152C36.9808 18.085 37.0085 17.231 36.9689 16.373C36.9254 15.4004 36.4381 14.8073 35.5388 14.6096C35.2259 14.5424 34.8852 14.5978 34.5564 14.5978L34.5524 14.6017Z" fill="#F5F9F0"/>
    <path d="M3.00275 14.5738C2.64621 14.5738 2.22233 14.5738 1.79448 14.5738C1.51717 14.5738 1.4221 14.5343 1.47756 14.1785C1.56471 13.6368 1.50133 13.0714 1.50133 12.4507C1.90144 12.4507 2.24213 12.4507 2.58679 12.4507C4.54775 12.4665 6.5087 12.4784 8.46966 12.4981C9.85224 12.5139 11.009 13.4984 11.0962 14.9613C11.2388 17.3454 11.2388 19.7414 11.2982 22.1571H8.93712C8.93712 21.0026 8.94901 19.8521 8.93712 18.7055C8.92524 17.7091 8.90543 16.7088 8.83809 15.7165C8.78659 14.9297 8.40232 14.5857 7.61397 14.5699C6.88901 14.5541 6.16009 14.5778 5.43513 14.5699C5.14594 14.5659 5.07463 14.6924 5.07463 14.9573C5.05086 16.8907 5.01521 18.828 4.97559 20.7614C4.96767 21.228 4.92805 21.6905 4.90428 22.1689H0.986328C1.02198 21.5284 1.05367 20.8919 1.09329 20.2237H2.65809C2.77298 18.3259 2.88786 16.4637 3.00275 14.5738Z" fill="#F5F9F0"/>
    <path d="M84.5826 22.6793C82.9782 20.6985 81.3698 18.7098 79.7337 16.6934C79.6822 18.5596 79.6307 20.3427 79.5831 22.1574H77.5509C77.5509 21.0978 77.4597 20.0145 77.5746 18.9549C77.7133 17.6858 78.0262 16.4364 78.2719 15.1791C78.3749 14.6454 77.8282 14.4991 77.6539 14.1235C77.535 13.8665 77.2894 13.6688 77.1032 13.4513C77.5944 13.052 78.0857 12.6645 78.5611 12.2534C78.8067 12.0399 78.9493 12.0636 79.1513 12.3206C80.0744 13.4948 81.0251 14.6454 81.9561 15.8117C82.4434 16.4166 82.9108 17.0374 83.4615 17.749C83.6952 17.1283 83.9131 16.5787 84.1032 16.0213C84.1944 15.7524 84.333 15.444 84.2775 15.191C84.2142 14.9103 83.9963 14.6256 83.7705 14.424C83.5367 14.2105 83.2198 14.0958 82.895 13.91C83.204 13.3841 83.509 12.8583 83.8339 12.3443C83.8814 12.2692 84.0517 12.1861 84.1151 12.2138C84.8916 12.5459 85.7275 12.7594 86.3217 13.4474C86.7297 13.9218 86.6267 14.4398 86.5435 14.934C86.3098 16.3771 85.5967 17.6304 84.8718 18.8679C84.7212 19.1249 84.6777 19.2515 84.8955 19.4847C85.3313 19.9631 85.7394 20.4732 86.1276 20.9911C86.2227 21.1176 86.286 21.426 86.2147 21.4853C85.7314 21.9084 85.2085 22.2879 84.6935 22.6754C84.6737 22.6912 84.6301 22.6754 84.5826 22.6754V22.6793Z" fill="#F5F9F0"/>
    <path d="M54.6849 33.0222V38.3834H52.6011C52.6011 37.2882 52.51 36.193 52.6249 35.1176C52.7556 33.8841 53.0765 32.6663 53.2905 31.4407C53.3221 31.2707 53.2627 31.0413 53.1597 30.899C52.8428 30.4681 52.4823 30.0687 52.1456 29.6575C52.6289 29.2622 53.1241 28.8787 53.5955 28.4675C53.8371 28.254 53.9758 28.2737 54.1778 28.5307C55.5366 30.2704 56.9153 31.9942 58.2859 33.722C58.3335 33.7813 58.4127 33.8208 58.5632 33.9315C58.8049 33.1803 59.0584 32.4845 59.2486 31.7728C59.4467 31.0334 59.3833 30.9504 58.6781 30.5629C58.4404 30.4325 58.2107 30.2822 57.9413 30.1201C58.2424 29.6061 58.5434 29.0803 58.8604 28.5663C58.9079 28.4872 59.0782 28.4003 59.1377 28.4279C59.7992 28.7482 60.4727 29.0526 61.0986 29.4401C61.7721 29.8552 61.6731 30.5313 61.5701 31.1955C61.368 32.5517 60.7144 33.7299 60.0171 34.8606C59.6962 35.3825 59.8389 35.6474 60.1597 36.0033C60.5202 36.4026 60.8768 36.8059 61.1897 37.2368C61.2769 37.3554 61.2729 37.6717 61.1818 37.7666C60.8292 38.1225 60.4331 38.4388 60.033 38.7472C59.8191 38.9132 59.6566 38.9646 59.411 38.6523C58.0245 36.877 56.5904 35.1334 55.1722 33.378C55.0731 33.2554 54.982 33.121 54.8869 32.9905L54.6809 33.0182L54.6849 33.0222Z" fill="#F5F9F0"/>
    <path d="M16.0916 20.2C18.0169 19.9983 19.8155 18.8557 20.0215 16.7325C20.0611 16.3253 20.0968 15.8983 20.0215 15.5029C19.8432 14.5817 19.0271 14.1587 18.1081 14.4433C17.8941 14.5106 17.6763 14.5501 17.3831 14.6213C17.3039 14.0282 17.2128 13.4786 17.1692 12.9291C17.1613 12.8184 17.2999 12.6286 17.4108 12.593C18.5755 12.2016 19.76 12.0751 20.9128 12.6088C21.721 12.9805 22.1726 13.6803 22.3033 14.5303C22.5925 16.3925 22.3944 18.1717 21.2099 19.7255C20.2948 20.9275 19.0747 21.7261 17.6129 22.0701C16.674 22.2915 15.7034 22.3903 14.7408 22.4694C13.992 22.5327 13.9445 22.4575 13.893 21.7142C13.8455 20.9828 13.8455 20.2474 13.794 19.516C13.7068 18.2192 13.588 16.9223 13.4968 15.6255C13.4493 14.9573 13.4255 14.2891 13.3938 13.621C13.378 13.2691 13.3582 12.9172 13.3384 12.4862C14.0713 12.4111 14.8358 12.3321 15.6242 12.249C15.7826 14.9297 15.9371 17.5431 16.0956 20.196L16.0916 20.2Z" fill="#F5F9F0"/>
    <path d="M79.0681 36.4102H83.719C83.719 34.8683 83.7586 33.3501 83.7031 31.8358C83.6754 31.0964 83.2436 30.8038 82.4394 30.7841C81.5481 30.7604 80.6607 30.7485 79.7693 30.7287C79.6109 30.7287 79.4524 30.7011 79.2583 30.6813C79.2583 30.0685 79.2424 29.4952 79.2741 28.9258C79.2821 28.8191 79.4841 28.6372 79.595 28.6372C80.8944 28.6451 82.1938 28.653 83.4932 28.7242C84.9669 28.8033 85.9057 29.7363 85.985 31.2071C86.0682 32.7135 86.08 34.2199 86.1276 35.7262C86.1355 35.9516 86.1593 36.177 86.1751 36.43H87.4943C87.3755 37.1021 87.2685 37.7347 87.1536 38.3871H78.8463C78.9176 37.7347 78.9889 37.1021 79.0642 36.4181L79.0681 36.4102Z" fill="#F5F9F1"/>
    <path d="M56.8717 20.2162H58.3493C58.2265 20.8804 58.1077 21.5051 57.9849 22.1654H49.7211C49.7488 21.5288 49.7805 20.8804 49.8122 20.2043H54.5938C54.5938 19.4255 54.6057 18.6782 54.5938 17.927C54.5779 17.16 54.5542 16.3929 54.4987 15.6259C54.4512 14.9498 54.0194 14.5821 53.334 14.5663C52.3793 14.5426 51.4246 14.5228 50.4738 14.4991C50.3787 14.4991 50.2836 14.4833 50.1648 14.4714V12.4511C51.0482 12.4511 51.9316 12.4313 52.8151 12.455C53.5123 12.4748 54.2214 12.4906 54.9067 12.6092C55.8813 12.7753 56.7092 13.6649 56.7687 14.6414C56.8519 15.9818 56.8479 17.326 56.8717 18.6703C56.8796 19.1645 56.8717 19.6548 56.8717 20.2202V20.2162Z" fill="#F5F9F0"/>
    <path d="M37.8405 37.1024C38.7239 36.2879 39.6113 35.5327 40.4194 34.7025C41.3543 33.7417 42.3249 32.7809 42.5705 31.3576C42.6418 30.9543 42.5983 30.7804 42.1387 30.7804C40.9186 30.7843 39.6984 30.7527 38.4783 30.7448C38.1217 30.7448 37.9712 30.6301 37.9355 30.2347C37.8563 29.4045 37.6701 28.586 37.575 27.7558C37.4998 27.1113 37.476 26.455 37.472 25.8066C37.472 25.688 37.6464 25.4784 37.7612 25.4626C38.3911 25.3914 39.025 25.3677 39.738 25.3242C39.738 25.6089 39.7222 25.8501 39.738 26.0873C39.7975 26.8108 39.8925 27.5344 39.9282 28.2618C39.944 28.6098 40.1302 28.6137 40.3798 28.6137C41.5326 28.6098 42.6894 28.6216 43.8422 28.6019C44.2067 28.594 44.3849 28.6928 44.4998 29.0724C45.1218 31.152 44.6464 32.9984 43.3945 34.7064C42.4517 35.9953 41.2989 37.0747 40.0906 38.1027C40.0153 38.1659 39.9559 38.245 39.8846 38.3162C39.3815 38.8222 39.2785 38.8143 38.8388 38.2687C38.5219 37.8773 38.1812 37.5017 37.8365 37.1024H37.8405Z" fill="#F5F9F0"/>
    <path d="M68.9583 12.4983C69.0257 14.5582 69.1009 16.6181 69.1524 18.6819C69.1802 19.8325 69.1564 20.987 69.1564 22.1612H63.7806C63.8757 21.5365 63.9707 20.9039 64.0737 20.2199H66.823V14.5938H64.8264V12.4351C66.1575 12.4351 67.5005 12.4351 68.8395 12.4351C68.8791 12.4548 68.9187 12.4746 68.9583 12.4944V12.4983Z" fill="#F5F9F0"/>
    <path d="M70.0319 30.7094C69.9922 30.0491 69.9526 29.3849 69.9051 28.6416C70.3726 28.6416 70.7647 28.6416 71.1569 28.6416C71.9809 28.6337 72.8089 28.5823 73.6289 28.6179C74.6629 28.6614 75.7444 28.7167 76.3901 29.6893C76.6912 30.144 76.921 30.7134 76.9725 31.2511C77.0794 32.3542 77.0596 33.4691 77.0715 34.5801C77.0834 35.8295 77.0715 37.0789 77.0715 38.3638H74.75C74.75 36.8812 74.754 35.4183 74.75 33.9594C74.75 33.3031 74.7382 32.6428 74.6946 31.9904C74.6431 31.1957 74.2905 30.8162 73.4744 30.7806C72.3731 30.7292 71.2639 30.7529 70.1626 30.741C70.119 30.7292 70.0754 30.7213 70.0319 30.7094Z" fill="#F5FAF1"/>
    <path d="M40.7641 14.4753V12.4589C41.7505 12.4589 42.7448 12.4549 43.7431 12.4589C44.2344 12.4589 44.7375 12.4391 45.2208 12.5142C45.7041 12.5894 46.1953 12.7119 46.6311 12.9215C47.3679 13.2734 47.6928 13.9653 47.7443 14.7283C47.8473 16.207 47.8869 17.6936 47.9226 19.1763C47.9463 20.1608 47.9265 21.1452 47.9265 22.1613H45.6249C45.6249 21.2915 45.6288 20.4415 45.6249 19.5914C45.6169 18.4725 45.6011 17.3536 45.5773 16.2347C45.5694 15.9461 45.5417 15.6456 45.4664 15.3688C45.3317 14.8628 44.9593 14.5979 44.4443 14.582C43.343 14.5425 42.2417 14.5227 41.1364 14.4951C41.0097 14.4951 40.8829 14.4832 40.7601 14.4753H40.7641Z" fill="#F5F9F1"/>
    <path d="M35.4794 28.6178C35.4794 32.5755 35.4794 36.4738 35.4833 40.3722C35.4833 40.7241 35.2734 40.7676 35.0198 40.7715C34.4771 40.7794 33.9304 40.7715 33.3005 40.7715V30.7014H31.815C31.815 30.0648 31.7991 29.4757 31.8308 28.8906C31.8348 28.7957 32.0249 28.6296 32.1319 28.6296C33.2332 28.6099 34.3345 28.6178 35.4833 28.6178H35.4794Z" fill="#F5FAF1"/>
    <path d="M75.063 22.1572H72.7217V14.5779C72.2939 14.5779 71.9017 14.57 71.5095 14.5779C71.2322 14.5858 71.1292 14.4672 71.1332 14.1944C71.1451 13.6369 71.1332 13.0794 71.1332 12.4508C72.179 12.4508 73.1932 12.4429 74.2113 12.4508C75.0194 12.4587 75.0194 12.4666 75.0234 13.2613C75.0392 15.5307 75.0511 17.8041 75.063 20.0736C75.063 20.7417 75.063 21.4139 75.063 22.1532V22.1572Z" fill="#F6FAF1"/>
    <path d="M1.52509 50.6516V44.2386C1.6162 44.211 1.73505 44.1358 1.85389 44.1398C2.58678 44.1596 3.32362 44.211 4.0565 44.2228C5.00727 44.2386 5.57377 44.5589 5.87089 45.3496C6.14819 46.085 5.859 46.6702 5.27269 47.1644C5.84712 47.4293 6.27496 47.7535 6.38589 48.4256C6.55623 49.4576 5.89466 50.5488 4.84881 50.6279C3.75543 50.7148 2.65016 50.6476 1.52509 50.6476V50.6516ZM2.92747 49.6513C3.45831 49.6078 3.96143 49.5841 4.46058 49.5129C4.89635 49.4497 5.09443 49.1492 5.07858 48.7182C5.06273 48.3307 4.67847 47.9037 4.31004 47.8879C3.81881 47.8682 3.32758 47.884 2.80466 47.884C2.84824 48.4849 2.88785 49.0424 2.92747 49.6513ZM2.87993 46.9707C3.41077 46.8718 3.86635 46.8046 4.31004 46.6939C4.417 46.6662 4.54377 46.5081 4.5715 46.3895C4.726 45.7015 4.55566 45.4366 3.87031 45.2587C3.63658 45.1994 3.39889 45.144 3.1612 45.144C3.07008 45.144 2.89974 45.3022 2.89578 45.3931C2.86804 45.8794 2.88389 46.3697 2.88389 46.9707H2.87993Z" fill="#78CDE6"/>
    <path d="M40.5383 44.1519H41.8178C41.8178 45.2035 41.8178 46.2394 41.8178 47.2713C41.8178 47.8842 41.7545 48.5089 42.1268 49.0584C42.4675 49.5645 43.1648 49.8096 43.8263 49.6554C44.4008 49.521 44.8405 49.0822 44.8801 48.4693C44.9475 47.4097 44.9554 46.3462 44.9831 45.2826C44.991 44.9228 44.9831 44.563 44.9831 44.1637H46.2746C46.2746 45.1759 46.2944 46.1762 46.2666 47.1725C46.2508 47.7735 46.235 48.3863 46.1003 48.9675C45.8665 49.9836 45.1535 50.5292 44.1433 50.7585C43.4342 50.9206 42.7607 50.8376 42.0872 50.6439C41.2632 50.4067 40.5581 49.5092 40.5343 48.5879C40.4987 47.1251 40.5264 45.6622 40.5264 44.1519H40.5383Z" fill="#78CEE7"/>
    <path d="M60.1399 14.5702H58.8762V12.4233H62.394V18.3302C61.6889 18.3302 61.0035 18.3421 60.3182 18.3144C60.2231 18.3144 60.0607 18.1167 60.0567 18.002C60.033 17.3457 60.033 16.6855 60.0488 16.0252C60.0607 15.5586 60.1082 15.0921 60.1439 14.5663L60.1399 14.5702Z" fill="#F5FAF1"/>
    <path d="M50.1371 28.6373C50.1371 30.5034 50.1331 32.3419 50.141 34.1804C50.141 34.4848 49.9667 34.5362 49.7449 34.5362C49.2497 34.5441 48.7585 34.5362 48.2633 34.5362C47.9503 34.5362 47.8592 34.3899 47.8632 34.0776C47.883 32.9982 47.8711 31.9149 47.8711 30.796H46.5994V28.6333H50.1371V28.6373Z" fill="#F5F9F1"/>
    <path d="M25.1754 14.5583H23.9989C23.9989 13.8743 23.9989 13.1903 23.9989 12.5063C24.0345 12.4786 24.0702 12.4549 24.1019 12.4272H27.5524C27.5524 12.9294 27.5524 13.4354 27.5524 13.9376C27.5524 15.2542 27.5405 16.5668 27.5603 17.8834C27.5643 18.2313 27.4533 18.3499 27.1087 18.3381C26.5184 18.3183 25.9281 18.3302 25.2745 18.3302V14.5781C25.2626 14.5346 25.2507 14.4911 25.2388 14.4476C25.219 14.4832 25.1992 14.5188 25.1794 14.5583H25.1754Z" fill="#F5F9F1"/>
    <path d="M7.42382 45.9233C8.55682 45.3777 9.6819 45.3777 10.7753 45.777C11.3735 45.9944 11.4646 46.6468 11.5042 47.2241C11.5399 47.7657 11.52 48.3074 11.5161 48.853C11.5161 49.2088 11.4646 49.5449 11.8528 49.7979C11.9875 49.8889 12.0034 50.2526 11.9637 50.474C11.9479 50.565 11.6429 50.648 11.4685 50.6519C11.1199 50.6559 10.7555 50.7508 10.4504 50.4266C10.3672 50.3396 10.0662 50.4543 9.86413 50.4898C9.40855 50.5729 8.94901 50.7389 8.49344 50.735C7.7249 50.731 7.11086 50.0945 7.0554 49.3551C7.0039 48.7186 7.62982 47.916 8.31913 47.8053C8.89751 47.7104 9.49174 47.6906 10.086 47.6392C10.3039 46.8801 10.1731 46.6982 9.40459 46.7022C8.86978 46.7061 8.33894 46.7022 7.77244 46.7022C7.68528 46.5045 7.56644 46.2435 7.42778 45.9233H7.42382ZM10.1137 48.5802C9.74132 48.5802 9.40063 48.5683 9.0639 48.5802C8.67567 48.6 8.35874 48.8372 8.37459 49.1891C8.39044 49.5291 8.73113 49.6675 9.10747 49.6675C10.1018 49.6675 10.1414 49.6358 10.1137 48.5762V48.5802Z" fill="#79CEE7"/>
    <path d="M65.7415 48.5762H62.5248C62.6595 49.4025 62.9447 49.6753 63.6815 49.6674C64.2956 49.6635 64.9096 49.6081 65.587 49.5725C65.587 49.8651 65.6148 50.1102 65.5752 50.3435C65.5593 50.4542 65.4286 50.6203 65.3335 50.6321C64.462 50.7507 63.6023 50.9761 62.703 50.6638C61.9503 50.4028 61.3007 49.8256 61.2492 49.0269C61.2056 48.3983 61.1977 47.7341 61.3482 47.1331C61.677 45.8165 62.8219 45.3262 63.9866 45.5635C65.3969 45.8521 65.9396 46.8128 65.7415 48.5722V48.5762ZM64.3788 47.6154C64.4223 47.0342 64.1569 46.5875 63.7053 46.5005C63.1864 46.4016 62.8655 46.6863 62.5089 47.6154H64.3788Z" fill="#78CEE7"/>
    <path d="M81.6431 45.6424C82.9623 45.5238 82.9702 45.5238 83.3347 46.6546C83.6199 47.5323 83.8854 48.414 84.1825 49.3708C84.4954 48.4891 84.7965 47.647 85.0936 46.8088C85.1332 46.702 85.161 46.5913 85.2045 46.4806C85.5888 45.4724 85.6324 45.4526 86.8208 45.682C86.5118 46.5557 86.2068 47.4255 85.9057 48.2914C85.6363 49.0663 85.363 49.8413 85.0976 50.6162C84.8916 51.2132 84.7094 51.8181 84.4835 52.4072C84.4439 52.514 84.2498 52.6049 84.1112 52.6247C83.8101 52.6721 83.505 52.6682 83.0772 52.6919C83.2911 52.0672 83.5011 51.4623 83.7229 50.8178C83.2159 50.6478 83.1287 50.2129 82.994 49.7503C82.7127 48.7738 82.3443 47.8209 82.0195 46.8562C81.8848 46.4608 81.7739 46.0615 81.6431 45.6424Z" fill="#78CDE6"/>
    <path d="M26.7521 45.9033C27.5246 45.5475 28.3486 45.4051 29.1647 45.5554C30.5948 45.8203 30.7256 46.0417 30.7256 47.5283C30.7256 47.9553 30.7256 48.3823 30.7256 48.8093C30.7256 49.1651 30.682 49.4854 31.1098 49.7226C31.2723 49.8135 31.2208 50.2998 31.2643 50.6043C31.2168 50.6557 31.1653 50.7071 31.1178 50.7624C30.682 50.6478 30.2462 50.5015 29.8025 50.4303C29.5846 50.3947 29.3351 50.454 29.1211 50.5292C28.4318 50.7743 27.7544 50.9008 27.0691 50.5094C26.4748 50.1694 26.3956 49.6238 26.4669 49.0347C26.5343 48.4969 26.8235 48.0502 27.3543 47.9078C27.8812 47.7695 28.4398 47.7378 28.9864 47.6983C29.2638 47.6785 29.5767 47.6706 29.5094 47.3345C29.4618 47.1013 29.2083 46.7573 29.0142 46.7336C28.4873 46.6743 27.9446 46.7573 27.4098 46.7889C27.1879 46.8008 26.9819 46.8403 26.9542 46.5082C26.9423 46.3382 26.8433 46.1761 26.7482 45.9033H26.7521ZM29.6361 48.5839C29.0894 48.5839 28.6854 48.5286 28.309 48.6037C28.103 48.6432 27.8455 48.8765 27.7861 49.0742C27.7425 49.2244 27.9208 49.5289 28.0872 49.6396C28.5348 49.9361 28.9746 49.6435 29.343 49.4419C29.5173 49.347 29.5213 48.9516 29.6361 48.5839Z" fill="#79CEE7"/>
    <path d="M52.2842 50.3751C52.1812 50.47 52.0901 50.6321 51.9792 50.644C51.6543 50.6796 51.3255 50.6558 50.9294 50.6558C50.9294 50.0114 50.9294 49.3946 50.9294 48.7739C50.9294 48.4299 50.9294 48.082 50.9294 47.738C50.9294 46.7298 50.3827 46.374 49.428 46.7654C49.1071 46.8959 48.9407 47.1133 48.9446 47.481C48.9605 48.5169 48.9486 49.5528 48.9486 50.6203H47.6849V45.599C48.1325 45.7414 48.6436 45.3262 49.0239 45.8837C49.0556 45.9311 49.3408 45.8639 49.4636 45.7849C50.1331 45.3499 50.8581 45.4527 51.5196 45.686C52.1693 45.9153 52.1812 46.6191 52.2169 47.1845C52.2842 48.2006 52.2604 49.2206 52.2763 50.2407C52.2763 50.2842 52.2842 50.3277 52.2882 50.3751H52.2842Z" fill="#78CDE6"/>
    <path d="M32.2864 46.1012C32.2824 46.0064 32.2745 45.9115 32.2705 45.8205C32.2705 45.781 32.2785 45.7454 32.2824 45.7059C32.738 45.6426 33.2372 45.3224 33.5778 45.9431C33.5976 45.9826 33.8314 45.9668 33.8987 45.9036C34.5326 45.3382 35.2694 45.4528 35.9785 45.6347C36.4935 45.7652 36.7193 46.2317 36.7471 46.722C36.8144 47.9318 36.8263 49.1456 36.858 50.3555C36.858 50.4306 36.8263 50.5215 36.7788 50.5769C36.6163 50.7548 35.729 50.6678 35.5269 50.4662C35.5309 50.395 35.5348 50.3238 35.5388 50.2566C35.5388 50.1301 35.5388 50.0036 35.5428 49.8771C35.5428 49.8375 35.5428 49.8019 35.5428 49.7624C35.5428 49.4066 35.5428 49.0468 35.5428 48.6909C35.5428 48.6514 35.5428 48.6158 35.5428 48.5763C35.5428 48.4814 35.5428 48.3905 35.5428 48.2956C35.5428 48.256 35.5428 48.2204 35.5428 48.1809C35.5428 47.9832 35.5903 47.7737 35.5348 47.5918C35.4398 47.2874 35.309 46.7694 35.1466 46.7497C34.6475 46.6904 34.0453 46.4927 33.6452 47.0264C33.5501 47.1529 33.4986 47.3427 33.4986 47.5048C33.4867 48.5367 33.4907 49.5687 33.4907 50.6322H32.2785C32.2785 49.1575 32.2785 47.6867 32.2785 46.2199C32.2785 46.1843 32.2785 46.1447 32.2785 46.1092L32.2864 46.1012Z" fill="#78CDE6"/>
    <path d="M55.6 45.7257C55.7387 45.6387 55.7545 45.6229 55.7664 45.6229C56.9747 45.5556 56.9826 45.5556 57.3391 46.6904C57.5649 47.4139 57.7551 48.1493 57.9769 48.8768C58.0245 49.0389 58.1314 49.1852 58.2305 49.3749C58.4483 48.6751 58.6464 48.0228 58.8524 47.3704C58.999 46.9078 59.1258 46.4373 59.3199 45.9985C59.3912 45.8364 59.6091 45.6743 59.7873 45.6347C60.0686 45.5754 60.3737 45.6189 60.7342 45.6189C60.7183 45.8087 60.7341 45.9866 60.6787 46.1408C60.1558 47.5562 59.6249 48.9638 59.0862 50.3713C59.0426 50.4859 58.9039 50.6362 58.797 50.6441C58.3691 50.6718 57.9373 50.6718 57.5134 50.6401C57.4144 50.6322 57.2837 50.4741 57.2401 50.3594C56.8717 49.3433 56.5191 48.3193 56.1625 47.2953C55.9764 46.7694 55.7902 46.2396 55.6079 45.7296L55.6 45.7257Z" fill="#78CDE6"/>
    <path d="M72.0008 46.6113C71.8146 47.2637 72.187 47.3388 72.4761 47.4732C72.9 47.6709 73.3635 47.8172 73.7438 48.0742C74.6906 48.7147 74.5441 50.1143 73.4784 50.5413C72.5871 50.9011 71.6442 50.826 70.7331 50.6322C70.2379 50.5294 70.5588 50.0906 70.5706 49.8217C70.5825 49.5252 70.8559 49.545 71.0975 49.5687C71.5491 49.6122 72.0087 49.6715 72.4603 49.6438C72.6504 49.6319 72.8327 49.4184 73.0149 49.2998C72.8604 49.1377 72.7336 48.9203 72.5474 48.8214C72.1077 48.5921 71.6086 48.4616 71.1807 48.2086C70.3488 47.7144 70.4082 46.2436 71.252 45.8047C71.874 45.4805 72.5435 45.4687 73.213 45.5398C73.5101 45.5715 73.7993 45.6743 74.0845 45.7454C74.1241 46.6192 73.9776 46.7339 73.1575 46.6232C72.7653 46.5718 72.3613 46.6153 71.9968 46.6153L72.0008 46.6113Z" fill="#78CEE7"/>
    <path d="M78.2837 47.0972C78.2719 46.9825 78.2639 46.8678 78.2521 46.7532C77.4399 46.6069 77.4598 46.6069 77.4716 45.9941C77.4796 45.401 77.9431 45.7055 78.2481 45.5592V44.6577H79.4881C79.7297 44.9424 79.2543 45.4959 79.8406 45.5987C80.2051 45.6659 80.5933 45.6106 80.9974 45.6106C81.0449 45.7885 81.1123 45.9545 81.1321 46.1246C81.1796 46.4962 81.0489 46.7255 80.6211 46.7057C80.2922 46.6899 79.9634 46.7057 79.5594 46.7057C79.5594 47.5598 79.5396 48.4058 79.5673 49.2519C79.5792 49.5603 80.0189 49.7303 80.4428 49.6552C80.7122 49.6078 80.9816 49.5801 81.3381 49.5327C81.3381 49.8687 81.35 50.1415 81.3302 50.4104C81.3262 50.4895 81.247 50.612 81.1796 50.6318C80.4071 50.8493 79.6307 51.0114 78.8819 50.5567C78.4937 50.3195 78.2837 49.9794 78.2837 49.5168C78.2837 48.7459 78.2837 47.9709 78.2837 47.2C78.2956 47.1881 78.3154 47.1762 78.3154 47.1723C78.3075 47.1486 78.2956 47.1248 78.2837 47.1011V47.0972Z" fill="#79CEE7"/>
    <path d="M67.96 28.689C67.9323 29.2543 67.9085 29.8514 67.861 30.4444C67.853 30.5314 67.7342 30.6105 67.655 30.6816C67.6272 30.7054 67.5599 30.6896 67.5084 30.6896C66.1654 30.7212 64.8264 30.7607 63.4835 30.7844C62.9764 30.7923 62.9368 30.6935 63.0517 30.1914C63.1586 29.7248 63.1903 29.2385 63.2656 28.689H67.96Z" fill="#F7FBF3"/>
    <path d="M23.6225 49.3549L23.6067 44.3376C23.6305 44.2981 23.6503 44.2586 23.674 44.219C24.0425 44.1993 24.4109 44.1795 24.7793 44.1558C24.8348 44.2151 24.8942 44.2744 24.9497 44.3337C24.9576 45.8321 24.9695 47.3266 24.9734 48.8251C24.9734 49.5407 24.9734 49.5407 25.7261 49.5921C25.7578 49.8531 25.8093 50.118 25.8212 50.3868C25.8212 50.462 25.734 50.5648 25.6588 50.6122C25.2547 50.8573 24.0821 50.628 23.8325 50.2247C23.7057 50.0152 23.6899 49.7384 23.6265 49.4893C23.6265 49.4458 23.6265 49.4024 23.6265 49.3589L23.6225 49.3549Z" fill="#79CEE7"/>
    <path d="M14.2575 50.4701C14.0752 50.5334 13.897 50.6243 13.7068 50.6481C13.4652 50.6797 13.2156 50.656 12.9304 50.656V45.5754C13.3859 45.7692 13.992 45.2789 14.2852 46.0262C14.8319 45.5596 15.4618 45.4291 16.1669 45.5517C16.1234 45.8838 16.0837 46.2041 16.0322 46.6034C15.7668 46.635 15.4737 46.6864 15.1765 46.6983C14.5031 46.722 14.1901 47.0699 14.2179 47.7342C14.2535 48.5724 14.2535 49.4105 14.2654 50.2527C14.2654 50.3278 14.2654 50.399 14.2654 50.4741L14.2575 50.4701Z" fill="#78CDE6"/>
    <path d="M66.8428 48.1769C66.8428 48.082 66.8428 47.9911 66.8428 47.8962C66.8428 47.8566 66.8428 47.821 66.8428 47.7815C66.8428 47.1924 66.8349 46.6073 66.831 46.0181C66.8151 45.9786 66.7953 45.9391 66.7794 45.8995C66.8349 45.8086 66.8785 45.6386 66.9419 45.6346C67.2509 45.607 67.5718 45.5832 67.8768 45.6346C67.9996 45.6544 68.0907 45.8521 68.1184 45.8837C68.7523 45.7216 69.3505 45.5674 70.0041 45.4014C70.0239 45.6979 70.0358 45.8442 70.0398 45.9865C70.0477 46.5242 69.9051 46.6784 69.3703 46.7021C69.2554 46.7061 69.1405 46.6982 69.0256 46.7021C68.4116 46.7456 68.1581 47.0224 68.1581 47.6313C68.1581 48.6157 68.1581 49.6002 68.1581 50.731C67.6629 50.6401 67.2311 50.561 66.7953 50.4819C66.8072 50.4068 66.8151 50.3277 66.827 50.2526C66.827 49.9916 66.8349 49.7346 66.8389 49.4737C66.8389 49.4342 66.8389 49.3986 66.8389 49.359C66.8389 49.2642 66.8389 49.1732 66.8389 49.0783C66.8389 49.0388 66.8389 49.0032 66.8389 48.9637C66.8389 48.8688 66.8389 48.7739 66.8389 48.683C66.8389 48.6434 66.8389 48.6078 66.8389 48.5683C66.8389 48.4734 66.8389 48.3825 66.8389 48.2876C66.8389 48.248 66.8389 48.2125 66.8389 48.1729L66.8428 48.1769Z" fill="#79CEE7"/>
    <path d="M22.3746 44.3458C22.3627 45.7059 22.3469 47.066 22.339 48.4261C22.335 49.1456 22.339 49.8613 22.339 50.652C21.9309 50.652 21.5784 50.6718 21.2258 50.6401C21.1347 50.6322 21.0634 50.4583 20.9841 50.3594C20.9841 50.3278 20.9881 50.2962 20.9921 50.2645C20.9921 48.2877 20.9921 46.3108 20.996 44.33C21.0039 44.2984 21.0158 44.2667 21.0237 44.2351C21.0554 44.2311 21.0871 44.2232 21.1228 44.2153C21.515 44.2232 21.9111 44.2311 22.3033 44.2391C22.3311 44.2746 22.3548 44.3102 22.3826 44.3458H22.3746Z" fill="#78CEE7"/>
    <path d="M75.3324 50.537C75.3403 49.0227 75.3522 47.5084 75.3482 45.9981C75.3482 45.7292 75.4195 45.5987 75.7087 45.6146C76.0177 45.6304 76.3267 45.6146 76.6555 45.6146V50.6398C76.2435 50.6398 75.8236 50.6398 75.4037 50.6398L75.3284 50.537H75.3324Z" fill="#78CDE6"/>
    <path d="M54.8711 45.6146V50.6556C54.5106 50.6556 54.1382 50.6793 53.7737 50.6398C53.6826 50.6319 53.54 50.4263 53.54 50.3116C53.54 48.8685 53.5598 47.4214 53.5638 45.9783C53.5638 45.7016 53.6509 45.5909 53.9362 45.6106C54.2293 45.6304 54.5264 45.6146 54.8711 45.6146Z" fill="#78CDE6"/>
    <path d="M16.9474 48.5958C16.9077 48.2519 16.8642 47.9079 16.8166 47.5283H19.6016V48.6235H17.0662C17.0266 48.6156 16.983 48.6037 16.9434 48.5958H16.9474Z" fill="#78CCE5"/>
    <path d="M77.0993 44.298C76.7546 44.5391 76.3664 45.0096 76.0732 44.9622C75.7088 44.8989 75.4196 44.4008 75.0987 44.0924C75.4156 43.8077 75.7048 43.3451 76.0534 43.2977C76.3109 43.2621 76.6397 43.7721 76.9368 44.037C76.9923 44.124 77.0438 44.211 77.0993 44.298Z" fill="#78CDE6"/>
    <path d="M54.2373 45.1285C53.857 44.7134 53.5559 44.3813 53.2429 44.0334C53.3776 43.9385 53.4568 43.8871 53.5321 43.8278C53.7817 43.634 54.0273 43.294 54.2808 43.2901C54.4868 43.2861 54.677 43.7131 54.9186 43.8871C55.1524 44.0571 55.1207 44.1757 54.9503 44.3497C54.7245 44.5829 54.5146 44.8241 54.2412 45.1246L54.2373 45.1285Z" fill="#78CDE6"/>
    <path d="M35.5427 50.2524C35.5387 50.3236 35.5348 50.3948 35.5309 50.462C35.5348 50.3908 35.5387 50.3197 35.5427 50.2524Z" fill="#29414C"/>
    <path d="M25.1754 14.558C25.195 14.5224 25.2147 14.4868 25.2343 14.4473C25.2461 14.4908 25.2579 14.5342 25.2697 14.5777C25.2382 14.5698 25.2029 14.5659 25.1715 14.558H25.1754Z" fill="#F5F9F0"/>
    <path d="M21.118 44.2152C21.0866 44.2231 21.0551 44.2271 21.0198 44.235C21.0316 44.1915 21.0434 44.148 21.0551 44.1045C21.0748 44.1401 21.0983 44.1796 21.118 44.2152Z" fill="#0C1212"/>
    <path d="M78.2838 47.0972C78.2955 47.1209 78.3073 47.1446 78.3152 47.1683C78.3152 47.1762 78.2955 47.1881 78.2838 47.196C78.2838 47.1644 78.2838 47.1288 78.2838 47.0972Z" fill="#66B3C9"/>
    <path d="M24.101 12.4272C24.0656 12.4549 24.0303 12.4786 23.9989 12.5063C24.0342 12.4786 24.0696 12.4549 24.101 12.4272Z" fill="#7F827D"/>
    <path d="M32.2861 46.1011V46.2118C32.2704 46.1841 32.2586 46.1604 32.2547 46.1327C32.2547 46.1248 32.2743 46.1129 32.2861 46.1011Z" fill="#29414C"/>
    <path d="M32.2823 45.7056C32.2823 45.7451 32.2745 45.7807 32.2705 45.8202C32.2705 45.7807 32.2784 45.7451 32.2823 45.7056Z" fill="#29414C"/>
    <path d="M20.9878 50.2603C20.9878 50.2919 20.9839 50.3236 20.98 50.3552C20.9721 50.3315 20.9603 50.3077 20.9564 50.284C20.9564 50.2761 20.9761 50.2682 20.9878 50.2563V50.2603Z" fill="#0C1212"/>
    <path d="M52.2841 50.3752C52.2841 50.3317 52.2763 50.2882 52.2723 50.2407C52.2723 50.2842 52.2802 50.3277 52.2841 50.3752Z" fill="#38646D"/>
    <path d="M21.0234 44.2349C21.0155 44.2665 21.0038 44.2981 20.9959 44.3298C20.992 44.3021 20.9841 44.2784 20.9802 44.2507C20.9802 44.2467 21.0077 44.2388 21.0234 44.2349Z" fill="#0C1212"/>
    <path d="M75.3324 50.5371L75.407 50.6399C75.3835 50.6043 75.356 50.5727 75.3324 50.5371Z" fill="#38646D"/>
    </g>
    <defs>
    <clipPath id="clip0_848_25850">
    <rect width="145" height="54" fill="white" transform="translate(0.986328 0.439453)"/>
    </clipPath>
    </defs>
    </svg>
    