<svg width="40" height="40" viewBox="0 0 40 40" fill="none" xmlns="http://www.w3.org/2000/svg">
<g clip-path="url(#clip0_571_12734)">
<path d="M10.3163 23.987L13.0362 21.2671C13.3618 20.9395 13.7491 20.6797 14.1757 20.5029C14.6024 20.3261 15.0599 20.2357 15.5218 20.237H21.3882C21.8809 20.237 22.3663 20.3565 22.8028 20.5853C23.2392 20.814 23.6137 21.1452 23.894 21.5505C24.1743 21.9557 24.3522 22.4229 24.4124 22.912C24.4725 23.401 24.4131 23.8974 24.2394 24.3585L29.5409 23.1397C29.932 23.0338 30.3423 23.0198 30.7397 23.0986C31.1371 23.1775 31.5109 23.3472 31.8319 23.5944V23.5968C32.1892 23.8697 32.4712 24.229 32.6512 24.641C32.8313 25.053 32.9035 25.504 32.8611 25.9516C32.8186 26.3992 32.6629 26.8286 32.4087 27.1994C32.1544 27.5702 31.8099 27.8701 31.4077 28.071L31.369 28.0886L26.8198 30.0245C26.7859 30.0385 26.751 30.0502 26.7155 30.0597L19.2155 31.9347C19.1596 31.9487 19.1021 31.9558 19.0444 31.9558H10.3163M10.3163 23.987H6.85693C6.42181 23.987 6.00451 24.1599 5.69684 24.4675C5.38916 24.7752 5.21631 25.1925 5.21631 25.6276V30.3151C5.21631 30.7503 5.38916 31.1676 5.69684 31.4752C6.00451 31.7829 6.42181 31.9558 6.85693 31.9558H10.3163M10.3163 23.987V31.9558" stroke="#8BA698" stroke-width="2"/>
<path d="M23.7319 24.4089L16.3569 26.3776" stroke="#8BA698" stroke-width="2" stroke-linecap="round" stroke-linejoin="round"/>
<path d="M32.9839 20.4611C33.9776 15.5909 30.835 10.8372 25.9648 9.8435C21.0946 8.8498 16.3409 11.9923 15.3472 16.8626" stroke="#8BA698" stroke-width="2" stroke-linecap="round" stroke-linejoin="round"/>
<path d="M20.0757 17.0495V13.9245H22.7163C23.4166 13.9245 24.0883 14.1659 24.5835 14.5957C25.0787 15.0255 25.3569 15.6084 25.3569 16.2162V17.987" stroke="#8BA698" stroke-width="2" stroke-linecap="round" stroke-linejoin="round"/>
<path d="M28.5912 14.2526V20.7526H26.9819" stroke="#8BA698" stroke-width="2" stroke-linecap="round" stroke-linejoin="round"/>
</g>
<defs>
<clipPath id="clip0_571_12734">
<rect width="40" height="40" fill="white"/>
</clipPath>
</defs>
</svg>
