<svg width="40" height="40" viewBox="0 0 40 40" fill="none" xmlns="http://www.w3.org/2000/svg">
<g clip-path="url(#clip0_1045_975)">
<path d="M21.342 17.1225C22.3884 17.1225 23.2367 16.2742 23.2367 15.2277C23.2367 14.1813 22.3884 13.333 21.342 13.333C20.2956 13.333 19.4473 14.1813 19.4473 15.2277C19.4473 16.2742 20.2956 17.1225 21.342 17.1225Z" stroke="#383838" stroke-width="2" stroke-linecap="round" stroke-linejoin="round"/>
<path d="M19.3333 28.5337V24.4428L18.5 23.6246V20.3519C18.5 20.1349 18.5878 19.9268 18.7441 19.7733C18.9004 19.6199 19.1123 19.5337 19.3333 19.5337H22.6667C22.8877 19.5337 23.0996 19.6199 23.2559 19.7733C23.4122 19.9268 23.5 20.1349 23.5 20.3519V23.6246L22.6667 24.4428V28.5337" stroke="#383838" stroke-width="2" stroke-linecap="round" stroke-linejoin="round"/>
<path d="M8.29132 21.9325L8.87558 21.2707L8.29132 20.6089C7.48251 19.6927 7 18.5125 7 17.2257C7 14.366 9.40901 11.9898 12.4535 11.9898C13.1493 11.9898 13.8121 12.1145 14.4207 12.3406L15.6024 12.7796L15.761 11.529C16.086 8.96615 18.3618 6.93359 21.1742 6.93359C23.9516 6.93359 26.2065 8.91642 26.5745 11.4342L26.7438 12.5927L27.8615 12.2443C28.3907 12.0794 28.9568 11.9897 29.5468 11.9897C32.5912 11.9897 35.0002 14.366 35.0002 17.2257C35.0002 18.5125 34.5177 19.6927 33.7089 20.6089L33.1246 21.2707L33.7089 21.9325C34.5177 22.8487 35.0002 24.0289 35.0002 25.3157C35.0002 28.1754 32.5912 30.5516 29.5468 30.5516C28.9165 30.5516 28.3135 30.4493 27.7534 30.2622L26.736 29.9221L26.4681 30.9608C25.8849 33.2222 23.7527 34.9336 21.1742 34.9336C18.5588 34.9336 16.4032 33.1731 15.8563 30.864L15.5906 29.7421L14.5175 30.1638C13.8826 30.4133 13.1863 30.5516 12.4535 30.5516C9.40901 30.5516 7 28.1753 7 25.3156C7 24.0288 7.48251 22.8487 8.29132 21.9325Z" stroke="#383838" stroke-width="2"/>
</g>
<defs>
<clipPath id="clip0_1045_975">
<rect width="40" height="40" fill="white"/>
</clipPath>
</defs>
</svg>
