<svg width="40" height="41" viewBox="0 0 40 41" fill="none" xmlns="http://www.w3.org/2000/svg">
<g clip-path="url(#clip0_845_16826)">
<path d="M11.737 13.8158C13.4811 13.8158 14.8949 12.402 14.8949 10.6579C14.8949 8.91384 13.4811 7.5 11.737 7.5C9.99294 7.5 8.5791 8.91384 8.5791 10.6579C8.5791 12.402 9.99294 13.8158 11.737 13.8158Z" stroke="#204E37" stroke-width="2" stroke-linecap="round" stroke-linejoin="round"/>
<path d="M8.57895 34.4998V26.605L7 25.0261V18.7103C7 18.2915 7.16635 17.8899 7.46246 17.5938C7.75857 17.2977 8.16018 17.1313 8.57895 17.1313H14.8947C15.3135 17.1313 15.7151 17.2977 16.0112 17.5938C16.3073 17.8899 16.4737 18.2915 16.4737 18.7103V25.0261L14.8947 26.605V34.4998" stroke="#204E37" stroke-width="2" stroke-linecap="round" stroke-linejoin="round"/>
<path d="M26.3156 13.8158C28.0597 13.8158 29.4735 12.402 29.4735 10.6579C29.4735 8.91384 28.0597 7.5 26.3156 7.5C24.5716 7.5 23.1577 8.91384 23.1577 10.6579C23.1577 12.402 24.5716 13.8158 26.3156 13.8158Z" stroke="#204E37" stroke-width="2" stroke-linecap="round" stroke-linejoin="round"/>
<path d="M23.1579 34.4998V28.184H20L23.1579 18.7103C23.1579 18.2915 23.3242 17.8899 23.6204 17.5938C23.9165 17.2977 24.3181 17.1313 24.7368 17.1313H27.8947C28.3135 17.1313 28.7151 17.2977 29.0112 17.5938C29.3073 17.8899 29.4737 18.2915 29.4737 18.7103L32.6316 28.184H29.4737V34.4998" stroke="#204E37" stroke-width="2" stroke-linecap="round" stroke-linejoin="round"/>
</g>
<defs>
<clipPath id="clip0_845_16826">
<rect width="40" height="40" fill="white" transform="translate(0 0.5)"/>
</clipPath>
</defs>
</svg>
