<svg width="40" height="41" viewBox="0 0 40 41" fill="none" xmlns="http://www.w3.org/2000/svg">
<g clip-path="url(#clip0_845_16161)">
<path d="M10.3163 24.4868L13.0362 21.7669C13.3618 21.4393 13.7491 21.1795 14.1757 21.0027C14.6024 20.8259 15.0599 20.7355 15.5218 20.7368H21.3882C21.8809 20.7368 22.3663 20.8563 22.8028 21.0851C23.2392 21.3138 23.6137 21.645 23.894 22.0503C24.1743 22.4555 24.3522 22.9227 24.4124 23.4118C24.4725 23.9009 24.4131 24.3972 24.2394 24.8583L29.5409 23.6396C29.932 23.5337 30.3423 23.5196 30.7397 23.5985C31.1371 23.6773 31.5109 23.847 31.8319 24.0943V24.0966C32.1892 24.3695 32.4712 24.7288 32.6512 25.1408C32.8313 25.5528 32.9035 26.0038 32.8611 26.4514C32.8186 26.899 32.6629 27.3284 32.4087 27.6992C32.1544 28.07 31.8099 28.3699 31.4077 28.5708L31.369 28.5884L26.8198 30.5243C26.7859 30.5383 26.751 30.5501 26.7155 30.5595L19.2155 32.4345C19.1596 32.4485 19.1021 32.4556 19.0444 32.4556H10.3163M10.3163 24.4868H6.85693C6.42181 24.4868 6.00451 24.6597 5.69684 24.9674C5.38916 25.275 5.21631 25.6923 5.21631 26.1275V30.815C5.21631 31.2501 5.38916 31.6674 5.69684 31.9751C6.00451 32.2827 6.42181 32.4556 6.85693 32.4556H10.3163M10.3163 24.4868V32.4556" stroke="#204E37" stroke-width="2"/>
<path d="M23.7319 24.9087L16.3569 26.8774" stroke="#204E37" stroke-width="2" stroke-linecap="round" stroke-linejoin="round"/>
<path d="M32.9839 20.9608C33.9776 16.0905 30.835 11.3369 25.9648 10.3432C21.0946 9.3495 16.3409 12.492 15.3472 17.3623" stroke="#204E37" stroke-width="2" stroke-linecap="round" stroke-linejoin="round"/>
<path d="M20.0757 17.5493V14.4243H22.7163C23.4166 14.4243 24.0883 14.6658 24.5835 15.0955C25.0787 15.5253 25.3569 16.1082 25.3569 16.716V18.4868" stroke="#204E37" stroke-width="2" stroke-linecap="round" stroke-linejoin="round"/>
<path d="M28.5912 14.7524V21.2524H26.9819" stroke="#204E37" stroke-width="2" stroke-linecap="round" stroke-linejoin="round"/>
</g>
<defs>
<clipPath id="clip0_845_16161">
<rect width="40" height="40" fill="white" transform="translate(0 0.5)"/>
</clipPath>
</defs>
</svg>
