<svg width="40" height="40" viewBox="0 0 40 40" fill="none" xmlns="http://www.w3.org/2000/svg">
<g clip-path="url(#clip0_1045_263)">
<path d="M5.50537 16.2921C5.50537 17.8356 6.06614 19.2482 6.99506 20.3371C6.06614 21.426 5.50537 22.8385 5.50537 24.382C5.50537 27.826 8.2973 30.618 11.7413 30.618C12.5719 30.618 13.3646 30.4556 14.0894 30.1608C14.7236 32.9323 17.2045 35 20.1683 35C23.0905 35 25.5433 32.99 26.2194 30.2771C26.8583 30.498 27.5442 30.618 28.2582 30.618C31.7022 30.618 34.4941 27.826 34.4941 24.382C34.4941 22.8385 33.9334 21.426 33.0044 20.3371L20.1683 20.3371V5C16.9837 5 14.3567 7.38715 13.979 10.4697C13.2844 10.2026 12.53 10.0562 11.7413 10.0562C8.2973 10.0562 5.50537 12.8481 5.50537 16.2921Z" fill="#204E37" stroke="#204E37" stroke-width="2" stroke-linejoin="round"/>
</g>
<defs>
<clipPath id="clip0_1045_263">
<rect width="40" height="40" fill="white"/>
</clipPath>
</defs>
</svg>
