<svg width="40" height="41" viewBox="0 0 40 41" fill="none" xmlns="http://www.w3.org/2000/svg">
<g clip-path="url(#clip0_845_16358)">
<path d="M8.842 26.0888C9.88844 26.0888 10.7367 25.2405 10.7367 24.1941C10.7367 23.1476 9.88844 22.2993 8.842 22.2993C7.79557 22.2993 6.94727 23.1476 6.94727 24.1941C6.94727 25.2405 7.79557 26.0888 8.842 26.0888Z" stroke="#204E37" stroke-width="2" stroke-linecap="round" stroke-linejoin="round"/>
<path d="M6.83333 37.5V33.4091L6 32.5909V29.3182C6 29.1012 6.0878 28.8931 6.24408 28.7396C6.40036 28.5862 6.61232 28.5 6.83333 28.5H10.1667C10.3877 28.5 10.5996 28.5862 10.7559 28.7396C10.9122 28.8931 11 29.1012 11 29.3182V32.5909L10.1667 33.4091V37.5" stroke="#204E37" stroke-width="2" stroke-linecap="round" stroke-linejoin="round"/>
<path d="M20 18.5L16 15" stroke="#204E37" stroke-width="2" stroke-linecap="round" stroke-linejoin="round"/>
<path d="M20.3335 19.4992L24.5 16" stroke="#204E37" stroke-width="2" stroke-linecap="round" stroke-linejoin="round"/>
<path d="M20 37.5L20 12.5" stroke="#204E37" stroke-width="2" stroke-linecap="round" stroke-linejoin="round"/>
<path d="M16.3871 3.5C14.8446 3.5 13.399 3.80072 12.3017 4.33218C11.6888 4.62905 11.0689 5.06164 10.6682 5.63594C10.3528 5.54733 10.0203 5.5 9.67742 5.5C7.88923 5.5 6.36588 6.79627 6.12879 8.52784C4.38708 8.74381 3 10.1913 3 12C3 13.7977 4.3702 15.2385 6.09695 15.4681C6.09683 15.4787 6.09677 15.4893 6.09677 15.5C6.09677 17.1865 7.49897 18.5 9.16129 18.5C9.33395 18.5 9.50367 18.4859 9.66919 18.4588C9.80552 18.6856 9.96525 18.9114 10.1398 19.13C10.6077 19.7158 11.2529 20.3381 12.0661 20.908C13.6981 22.0519 16.029 23 19 23H20C23.4357 23 26.0083 22.0725 27.7777 20.9291C28.6589 20.3596 29.3426 19.7354 29.8329 19.1444C30.0187 18.9204 30.1862 18.6896 30.3276 18.4583C30.4941 18.4857 30.6649 18.5 30.8387 18.5C32.501 18.5 33.9032 17.1865 33.9032 15.5C33.9032 15.4893 33.9032 15.4787 33.9031 15.4681C35.6298 15.2385 37 13.7977 37 12C37 10.1913 35.6129 8.74381 33.8712 8.52784C33.6341 6.79626 32.1108 5.5 30.3226 5.5C29.9797 5.5 29.6472 5.54733 29.3318 5.63594C28.9311 5.06164 28.3112 4.62905 27.6983 4.33218C26.601 3.80072 25.1554 3.5 23.6129 3.5C22.2822 3.5 21.0243 3.72379 20 4.12594C18.9757 3.72379 17.7178 3.5 16.3871 3.5Z" stroke="#204E37" stroke-width="2"/>
</g>
<defs>
<clipPath id="clip0_845_16358">
<rect width="40" height="40" fill="white" transform="translate(0 0.5)"/>
</clipPath>
</defs>
</svg>
