<svg width="360" height="306" viewBox="0 0 360 306" fill="none" xmlns="http://www.w3.org/2000/svg">
<g clip-path="url(#clip0_185_13378)">
<path d="M3.41799 172.266V229.643C1.96411 224.4 1.2211 218.986 1.20898 213.545V172.266H3.41799Z" fill="#539C55"/>
<path opacity="0.3" d="M3.41799 172.266V229.643C1.96411 224.4 1.2211 218.986 1.20898 213.545V172.266H3.41799Z" fill="black"/>
<path d="M179.857 172.321L3.41727 188.446C0.489816 177.886 0.489816 166.728 3.41727 156.168L179.857 172.321Z" fill="#539C55"/>
<path d="M179.858 172.266L3.41797 156.113C6.73398 144.679 12.6391 134.163 20.6754 125.381L179.858 172.266Z" fill="#539C55"/>
<path d="M53.561 99.343L179.858 172.266L20.6753 125.326C30.1706 114.955 41.2747 106.181 53.561 99.343Z" fill="#539C55"/>
<path d="M98.7893 80.3455L179.913 172.238L53.561 99.3424C67.8339 91.2459 83.0158 84.8691 98.7893 80.3455Z" fill="#539C55"/>
<path d="M151.97 70.4058L179.913 172.238L98.7891 80.3461C116.147 75.2967 133.96 71.9672 151.97 70.4058Z" fill="#539C55"/>
<path d="M208.049 70.4054L179.968 172.238L152.025 70.4054C170.66 68.6883 189.414 68.6883 208.049 70.4054Z" fill="#539C55"/>
<path d="M261.091 80.3461L179.968 172.238L208.049 70.4058C226.012 71.9762 243.778 75.3056 261.091 80.3461Z" fill="#539C55"/>
<path d="M329.542 199.823L303.063 224.674L282.933 243.698L263.743 261.757L261.175 264.159V305.383C276.946 300.864 292.127 294.496 306.404 286.414C318.704 279.516 329.817 270.688 339.317 260.265C347.35 251.511 353.239 241.009 356.519 229.589C357.982 224.347 358.735 218.933 358.756 213.491V172.294L329.542 199.823Z" fill="#539C55"/>
<path opacity="0.3" d="M329.542 199.823L303.063 224.674L282.933 243.698L263.743 261.757L261.175 264.159V305.383C276.946 300.864 292.127 294.496 306.404 286.414C318.704 279.516 329.817 270.688 339.317 260.265C347.35 251.511 353.239 241.009 356.519 229.589C357.982 224.347 358.735 218.933 358.756 213.491V172.294L329.542 199.823Z" fill="black"/>
<path d="M339.206 125.437C347.232 134.228 353.136 144.741 356.464 156.169L179.996 172.322L339.206 125.437Z" fill="#539C55"/>
<path d="M358.673 172.348C358.65 177.799 357.898 183.223 356.436 188.474L302.979 183.559L179.996 172.293L329.459 158.487L356.436 156.03C357.914 161.344 358.666 166.833 358.673 172.348Z" fill="#539C55"/>
<path d="M356.436 188.474C353.15 199.891 347.262 210.392 339.234 219.15L282.85 202.583L179.996 172.21L302.979 183.476L356.436 188.474Z" fill="#539C55"/>
<path d="M339.233 219.152C329.733 229.574 318.621 238.403 306.32 245.3L263.66 220.615L180.023 172.349L282.878 202.723L339.233 219.152Z" fill="#539C55"/>
<path d="M306.32 99.3439L179.968 172.294L261.091 80.4022C276.859 84.9185 292.04 91.2762 306.32 99.3439Z" fill="#539C55"/>
<path d="M306.32 99.3429C318.61 106.222 329.713 115.032 339.206 125.436L179.996 172.376L306.32 99.3429Z" fill="#539C55"/>
<path d="M306.32 245.3C292.043 253.373 276.861 259.732 261.092 264.242L180.023 172.349L263.66 220.615L306.32 245.3Z" fill="#539C55"/>
<path d="M261.51 264.219C290.878 255.552 315.533 242.354 332.749 226.084C349.966 209.815 359.073 191.107 359.064 172.03C359.055 152.952 349.931 134.247 332.7 117.983C315.469 101.719 290.802 88.5286 261.426 79.8705C232.05 71.2123 199.11 67.4234 166.245 68.9226C133.381 70.4218 101.872 77.1507 75.2034 88.3655C48.5345 99.5803 27.7436 114.844 15.1288 132.47C2.51409 150.096 -1.43312 169.397 3.72352 188.239L180.294 172.057L261.51 264.219Z" fill="#75B077"/>
<path d="M261.12 264.269V305.494L179.914 213.491V172.239L261.12 264.269Z" fill="#2C3940"/>
<path d="M179.913 213.491L3.41797 229.699V188.447L179.913 172.239V213.491Z" fill="#539C55"/>
<path opacity="0.1" d="M179.913 213.491L3.41797 229.699V188.447L179.913 172.239V213.491Z" fill="black"/>
<path d="M248.55 6.6729C242.31 12.6131 236.973 19.2835 232.482 26.6093C225.339 38.251 220.745 50.7539 220.801 64.5348C220.853 77.225 226.985 86.3904 238.468 91.7642C241.713 93.2809 248.992 94.4091 248.992 94.4091H251.47C251.47 94.4091 252.671 94.4512 253.108 94.4091C267.45 92.9299 278.641 81.686 279.859 67.3856C280.465 60.2751 279.313 53.2864 277.244 46.4895C272.528 30.9814 263.758 17.9635 252.213 6.69631C250.539 5.05795 250.29 5.03455 248.56 6.68226L248.55 6.6729Z" fill="#316C4D"/>
<path d="M250.548 42.2917C250.548 41.6658 251.056 41.1583 251.682 41.1583C252.308 41.1583 252.815 41.6658 252.815 42.2917V132.726H250.548V42.2917Z" fill="#C6D9A2"/>
<rect x="261.84" y="56.887" width="2.26677" height="23.14" rx="1.13339" transform="rotate(30 261.84 56.887)" fill="#C6D9A2"/>
<rect x="239.219" y="68.6433" width="2.26677" height="23.14" rx="1.13339" transform="rotate(-30 239.219 68.6433)" fill="#C6D9A2"/>
<path d="M198.187 47.1259C198.012 40.4956 198.524 29.1798 192.737 24.5203C187.656 20.4286 183.705 25.9821 182.284 30.4589C178.826 41.3244 179.196 82.2153 180.091 90.451C180.091 90.451 179.209 82.2023 172.766 85.7393C166.323 89.2763 176.01 107.842 176.01 107.842C176.01 107.842 168.393 102.243 164.876 106.955C161.36 111.666 169.275 116.979 169.275 116.979C169.275 116.979 161.95 114.916 161.95 116.979C161.95 119.041 164.292 120.809 171.034 121.697H207.368C207.368 121.697 213.207 118.434 212.059 114.916C210.91 111.399 204.707 113.435 204.707 113.435C204.707 113.435 214.083 101.943 213.493 96.9311C212.902 91.9193 200.892 97.8121 200.892 97.8121C200.892 97.8121 210.274 73.9406 208.516 63.3295C207.128 54.9699 200.678 60.7192 197.168 63.9038C197.993 58.3517 198.334 52.7377 198.187 47.1259Z" fill="#43876E"/>
<path d="M186.598 69.5611C186.598 68.9352 187.105 68.4277 187.731 68.4277C188.357 68.4277 188.864 68.9352 188.864 69.5611V159.996H186.598V69.5611Z" fill="#C6D9A2"/>
<rect x="197.888" y="84.1563" width="2.26677" height="23.14" rx="1.13339" transform="rotate(30 197.888 84.1563)" fill="#C6D9A2"/>
<path d="M307.249 56.7441C301.98 56.8803 297.982 61.4194 298.299 66.903C298.483 70.0371 297.254 72.02 294.48 73.4719C292.912 74.2895 291.291 75.14 290.001 76.31C283.579 82.1131 281.481 89.2365 284.084 97.5111C285.493 101.984 284.855 106.021 282.237 109.817C281.703 110.593 281.055 111.283 280.498 112.045C275.323 119.116 276.193 128.871 282.544 135.083C288.824 141.224 297.982 141.713 305.202 136.3C305.5 136.079 305.836 135.905 306.318 135.605V135.641C306.295 135.619 306.318 135.605 306.318 135.605L308.506 135.816C311.279 137.146 313.51 138.593 315.948 139.317C323.254 141.478 330.81 138.541 335.053 132.198C339.33 125.803 339.046 117.354 334.089 111.279C330.484 106.857 329.52 102.224 331.292 96.7405C334.174 87.8127 329.784 77.7526 321.34 73.7538C318.07 72.2032 316.723 69.9337 316.827 66.4378C316.997 60.9025 312.659 56.6078 307.234 56.7488L307.249 56.7441Z" fill="#539C55"/>
<path d="M306.027 87.3454C306.027 86.7194 306.534 86.212 307.16 86.212C307.786 86.212 308.294 86.7194 308.294 87.3454V177.78H306.027V87.3454Z" fill="#C6D9A2"/>
<rect x="317.317" y="101.939" width="2.26677" height="23.14" rx="1.13339" transform="rotate(30 317.317 101.939)" fill="#C6D9A2"/>
<path d="M149.448 8.4541C148.643 5.57292 146.955 3.30914 144.394 1.67256C143.348 1.00126 142.534 1.08948 141.543 1.71667C139.084 3.27976 137.411 5.44061 136.66 8.20908C136.243 9.74277 135.409 10.4484 133.927 10.8894C130.389 11.9331 129.629 13.0845 129.653 16.784C129.653 17.3034 129.629 17.8277 129.673 18.3422C129.82 19.92 129.104 20.9098 127.754 21.6987C123.667 24.0849 123.323 24.8395 124.354 29.5729C124.795 31.6113 124.52 33.2381 122.857 34.2426C119.918 36.8052 119.373 38.4859 120.978 41.7052C122.214 44.1748 121.871 46.0858 120.271 48.2123C118.264 50.873 118.259 52.5439 120.296 55.1066C121.954 57.1842 122.101 59.0755 121.012 61.4569C119.422 64.9457 119.815 66.3765 122.774 68.8706C124.339 70.1886 124.952 71.6145 124.334 73.5745C124.143 74.1772 124.089 74.8191 123.966 75.4414C123.485 77.862 124.363 79.8269 126.523 80.7775C129.221 81.9632 130.016 83.8056 129.648 86.5447C129.305 89.1123 130.497 90.9791 132.651 92.3168C135.301 93.9632 137.897 95.6929 140.586 97.2609L145.385 97.2217C147.981 95.7076 150.463 94.022 153.04 92.4687C155.459 91.0135 156.715 88.9849 156.308 86.138C155.949 83.6243 156.862 82.0563 159.188 80.9097C161.867 79.5868 162.446 77.9894 161.936 75.0396C161.847 74.53 161.769 74.0106 161.617 73.5157C161.018 71.5459 161.671 70.1103 163.256 68.8314C166.048 66.5823 166.568 64.9065 165.057 61.7215C163.84 59.1638 164.016 57.1351 165.768 54.8959C167.701 52.4263 167.692 50.7505 165.807 48.2907C164.114 46.0711 163.746 44.0768 165.091 41.4896C166.578 38.6231 166.023 36.962 163.619 34.7179C163.28 34.3994 162.947 34.0858 162.593 33.782C161.573 32.9196 161.18 31.8612 161.489 30.5333C161.661 29.8032 161.784 29.0633 161.906 28.3234C162.451 25.0649 161.946 23.6685 159.051 22.1887C156.882 21.0813 156.126 19.6211 156.273 17.2299C156.533 13.0208 155.753 12.0164 151.68 10.7326C150.434 10.3406 149.781 9.67908 149.433 8.42959L149.448 8.4541ZM149.605 36.4426C149.507 36.4524 149.408 36.4622 149.31 36.4818C149.403 36.4671 149.502 36.4573 149.605 36.4426ZM149.408 35.9233C149.433 35.7322 149.453 35.5362 149.487 35.3549C149.457 35.5411 149.438 35.7371 149.408 35.9233Z" fill="#43876E"/>
<path d="M141.714 41.1587C141.714 40.5327 142.222 40.0253 142.848 40.0253C143.474 40.0253 143.981 40.5327 143.981 41.1587V131.593H141.714V41.1587Z" fill="#C6D9A2"/>
<rect x="153.004" y="61.4195" width="2.26677" height="23.14" rx="1.13339" transform="rotate(30 153.004 61.4195)" fill="#C6D9A2"/>
<rect x="153.004" y="42.8582" width="2.26677" height="23.14" rx="1.13339" transform="rotate(30 153.004 42.8582)" fill="#C6D9A2"/>
<path d="M95.2095 50.1739C94.2871 50.801 93.4892 51.6538 92.5119 52.1555C92.435 52.1951 92.3565 52.2314 92.2766 52.2647C91.0211 52.7881 89.3727 51.7132 89.4046 50.3492C89.4068 50.2567 89.4134 50.1648 89.4253 50.0736C89.7495 47.6205 90.5074 45.2125 90.6819 42.7594C91.031 37.7628 87.366 33.8247 82.7237 33.9C78.0714 33.9752 74.5011 37.9986 74.9599 42.955C75.1942 45.5285 75.9372 48.0519 76.3162 50.6204C76.4209 51.3278 76.2214 52.5619 75.7976 52.7575C75.1693 53.0485 74.1072 52.8327 73.4341 52.4565C72.2124 51.7793 71.1952 50.7358 70.0034 49.9983C67.216 48.2776 64.0447 48.9398 62.0203 51.5585C60.275 53.816 60.5044 57.137 62.6136 59.3393C64.0796 60.8744 65.6005 62.3543 67.0964 63.8593L67.1064 63.8493C68.6422 65.3944 70.1979 66.9295 71.7187 68.4897C73.0351 69.8441 73.2196 71.5247 72.2174 72.6033C71.1204 73.7872 69.4749 73.6869 68.0238 72.2672C66.4182 70.702 64.8824 69.0766 63.2968 67.4913C61.5814 65.7656 59.5221 64.8676 57.0738 65.2038C54.0121 65.6252 51.848 67.3107 50.8358 70.2555C49.8435 73.1401 50.3272 75.9444 52.6608 77.8808C57.5973 81.9643 62.7283 85.8121 67.7994 89.72C69.3552 90.924 69.809 92.5243 68.8167 93.8236C67.8643 95.0728 66.3285 95.133 64.7528 93.9791C63.4214 93.0109 62.1399 91.9725 60.7637 91.0795C58.4051 89.5495 55.9269 89.3338 53.4437 90.7986C50.9106 92.2936 49.8136 94.5912 49.9881 97.4858C50.1577 100.315 51.6685 102.136 54.2764 103.195C58.4749 104.89 62.6385 106.661 66.7972 108.437C68.6671 109.235 69.3103 110.524 68.7369 112.034C68.1984 113.449 66.9917 113.93 65.052 113.363C63.1322 112.807 61.5864 113.358 60.285 114.778C59.0035 116.178 58.6495 117.858 59.4523 119.539C60.2002 121.114 61.0828 122.704 62.2297 123.999C64.8126 126.918 68.3629 128.052 72.0578 128.729C74.7155 129.216 79.8541 129.567 82.5218 129.953L86.249 129.833C87.71 129.698 89.181 129.542 90.6121 129.226C93.2997 128.639 96.0423 128.157 98.6202 127.219C102.265 125.9 104.853 123.296 106.214 119.569C106.853 117.813 106.683 116.188 105.402 114.778C104.095 113.343 102.52 112.852 100.615 113.373C98.5853 113.93 97.3537 113.414 96.86 111.894C96.3714 110.399 97.0894 109.164 98.9493 108.387C103.123 106.636 107.282 104.85 111.485 103.17C114.133 102.111 115.514 100.19 115.689 97.3955C115.868 94.5561 114.706 92.2835 112.313 90.8187C109.889 89.3337 107.371 89.4692 104.998 91.0344C103.721 91.8772 102.53 92.8454 101.298 93.7534C99.3682 95.1731 97.8224 95.1831 96.8102 93.7935C95.7929 92.3889 96.2567 90.8889 98.1565 89.4792C98.3011 89.3739 98.4557 89.2886 98.5953 89.1782C103.213 85.6365 107.865 82.1299 112.432 78.5279C114.158 77.1634 115.14 75.2721 115.235 73.0096C115.364 69.8692 113.634 66.9746 110.787 65.7757C107.7 64.4763 104.893 65.1335 102.48 67.381C100.675 69.0666 98.9842 70.8876 97.224 72.6284C96.132 73.7069 94.8804 73.6819 93.7036 72.8491C92.6366 72.0966 92.5219 70.3759 93.3945 69.1669C93.7386 68.6903 94.1724 68.284 94.5862 67.8676C97.4135 65.0232 100.271 62.2189 103.048 59.3243C105.262 57.0166 105.322 53.6053 103.337 51.2575C101.263 48.8094 97.9121 48.3479 95.2345 50.1789L95.2095 50.1739Z" fill="#539C55"/>
<path d="M81.4175 77.8172C81.4175 77.1912 81.9249 76.6838 82.5509 76.6838V76.6838C83.1768 76.6838 83.6843 77.1912 83.6843 77.8172V168.252H81.4175V77.8172Z" fill="#C6D9A2"/>
<path d="M275.522 124.329C273.176 124.78 273.077 124.682 273.581 122.371C275.423 113.951 270.01 105.305 261.699 103.376C249.897 100.632 239.612 110.896 242.241 122.785C242.613 124.465 242.378 124.738 240.78 124.442C229.704 122.375 221.049 130.663 222.632 141.818C223.329 146.722 225.228 151.198 227.617 155.485C234.557 167.943 244.206 178.015 255.324 186.778L256.677 187.079L257.914 187.081L259.028 187.079H260.13C263.951 183.705 267.852 180.429 271.541 177.281C274.735 173.591 277.845 170.193 280.719 166.606C282.759 164.06 284.61 161.345 286.325 158.568C289.628 153.207 292.384 147.583 293.157 141.22C294.434 130.682 285.708 122.342 275.522 124.319L275.522 124.329Z" fill="#204E37"/>
<path d="M255.88 136.079C255.88 135.453 256.387 134.946 257.013 134.946V134.946C257.639 134.946 258.147 135.453 258.147 136.079V226.514H255.88V136.079Z" fill="#C6D9A2"/>
<rect x="267.169" y="150.673" width="2.26677" height="23.14" rx="1.13339" transform="rotate(30 267.169 150.673)" fill="#C6D9A2"/>
</g>
<defs>
<clipPath id="clip0_185_13378">
<rect width="359" height="305" fill="white" transform="translate(0.5 0.5)"/>
</clipPath>
</defs>
</svg>
