<svg width="40" height="40" viewBox="0 0 40 40" fill="none" xmlns="http://www.w3.org/2000/svg">
<g clip-path="url(#clip0_1045_962)">
<path d="M10.3163 23.9868L13.0362 21.2669C13.3618 20.9393 13.7491 20.6795 14.1757 20.5027C14.6024 20.3259 15.0599 20.2355 15.5218 20.2368H21.3882C21.8809 20.2368 22.3663 20.3563 22.8028 20.5851C23.2392 20.8138 23.6137 21.145 23.894 21.5503C24.1743 21.9555 24.3522 22.4227 24.4124 22.9118C24.4725 23.4009 24.4131 23.8972 24.2394 24.3583L29.5409 23.1396C29.932 23.0337 30.3423 23.0196 30.7397 23.0985C31.1371 23.1773 31.5109 23.347 31.8319 23.5943V23.5966C32.1892 23.8695 32.4712 24.2288 32.6512 24.6408C32.8313 25.0528 32.9035 25.5038 32.8611 25.9514C32.8186 26.399 32.6629 26.8284 32.4087 27.1992C32.1544 27.57 31.8099 27.8699 31.4077 28.0708L31.369 28.0884L26.8198 30.0243C26.7859 30.0383 26.751 30.0501 26.7155 30.0595L19.2155 31.9345C19.1596 31.9485 19.1021 31.9556 19.0444 31.9556H10.3163M10.3163 23.9868H6.85693C6.42181 23.9868 6.00451 24.1597 5.69684 24.4674C5.38916 24.775 5.21631 25.1923 5.21631 25.6275V30.315C5.21631 30.7501 5.38916 31.1674 5.69684 31.4751C6.00451 31.7827 6.42181 31.9556 6.85693 31.9556H10.3163M10.3163 23.9868V31.9556" stroke="#383838" stroke-width="2"/>
<path d="M23.7319 24.4087L16.3569 26.3774" stroke="#383838" stroke-width="2" stroke-linecap="round" stroke-linejoin="round"/>
<path d="M32.9839 20.4608C33.9776 15.5905 30.835 10.8369 25.9648 9.8432C21.0946 8.8495 16.3409 11.992 15.3472 16.8623" stroke="#383838" stroke-width="2" stroke-linecap="round" stroke-linejoin="round"/>
<path d="M20.0757 17.0493V13.9243H22.7163C23.4166 13.9243 24.0883 14.1658 24.5835 14.5955C25.0787 15.0253 25.3569 15.6082 25.3569 16.216V17.9868" stroke="#0022F5" stroke-width="2" stroke-linecap="round" stroke-linejoin="round"/>
<path d="M28.5912 14.2524V20.7524H26.9819" stroke="#0022F5" stroke-width="2" stroke-linecap="round" stroke-linejoin="round"/>
</g>
<defs>
<clipPath id="clip0_1045_962">
<rect width="40" height="40" fill="white"/>
</clipPath>
</defs>
</svg>
