<svg width="40" height="41" viewBox="0 0 40 41" fill="none" xmlns="http://www.w3.org/2000/svg">
<rect width="40" height="40" transform="translate(0 0.5)" fill="white"/>
<path d="M17.8644 32.7816C19.6085 32.7816 21.0223 31.3678 21.0223 29.6237C21.0223 27.8797 19.6085 26.4658 17.8644 26.4658C16.1204 26.4658 14.7065 27.8797 14.7065 29.6237C14.7065 31.3678 16.1204 32.7816 17.8644 32.7816Z" stroke="#204E37" stroke-width="2" stroke-linecap="round" stroke-linejoin="round"/>
<path d="M21.74 23.6846C23.676 24.9506 24.9552 27.1377 24.9552 29.6236C24.9552 33.5398 21.7805 36.7144 17.8643 36.7144C13.9481 36.7144 10.7734 33.5398 10.7734 29.6236C10.7734 27.1377 12.0526 24.9506 13.9887 23.6846" stroke="#204E37" stroke-width="2" stroke-linecap="round" stroke-linejoin="round"/>
<path d="M14.0073 23.6489V8.14282C14.0073 6.01256 15.7342 4.28564 17.8645 4.28564V4.28564C19.9948 4.28564 21.7217 6.01256 21.7217 8.14282V23.6489" stroke="#204E37" stroke-width="2" stroke-linecap="round" stroke-linejoin="round"/>
<path d="M17.8643 26.4658L17.8643 9.41211" stroke="#204E37" stroke-width="2" stroke-linecap="round" stroke-linejoin="round"/>
<path d="M25.9761 9.98438H29.2261" stroke="#204E37" stroke-width="2" stroke-linecap="round" stroke-linejoin="round"/>
<path d="M25.9761 13.9673H29.2261" stroke="#204E37" stroke-width="2" stroke-linecap="round" stroke-linejoin="round"/>
<path d="M25.9761 17.9502H29.2261" stroke="#204E37" stroke-width="2" stroke-linecap="round" stroke-linejoin="round"/>
</svg>
