<svg width="40" height="40" viewBox="0 0 40 40" fill="none" xmlns="http://www.w3.org/2000/svg">
<rect width="40" height="40" fill="white"/>
<path d="M17.8644 32.2816C19.6085 32.2816 21.0223 30.8678 21.0223 29.1237C21.0223 27.3797 19.6085 25.9658 17.8644 25.9658C16.1204 25.9658 14.7065 27.3797 14.7065 29.1237C14.7065 30.8678 16.1204 32.2816 17.8644 32.2816Z" stroke="#383838" stroke-width="2" stroke-linecap="round" stroke-linejoin="round"/>
<path d="M21.74 23.1846C23.676 24.4506 24.9552 26.6377 24.9552 29.1236C24.9552 33.0398 21.7805 36.2144 17.8643 36.2144C13.9481 36.2144 10.7734 33.0398 10.7734 29.1236C10.7734 26.6377 12.0526 24.4506 13.9887 23.1846" stroke="#383838" stroke-width="2" stroke-linecap="round" stroke-linejoin="round"/>
<path d="M14.0073 23.1489V7.64282C14.0073 5.51256 15.7342 3.78564 17.8645 3.78564V3.78564C19.9948 3.78564 21.7217 5.51256 21.7217 7.64282V23.1489" stroke="#383838" stroke-width="2" stroke-linecap="round" stroke-linejoin="round"/>
<path d="M17.8643 25.9658L17.8643 8.91211" stroke="#383838" stroke-width="2" stroke-linecap="round" stroke-linejoin="round"/>
<path d="M25.9761 9.48438H29.2261" stroke="#ED2D2D" stroke-width="2" stroke-linecap="round" stroke-linejoin="round"/>
<path d="M25.9761 13.4673H29.2261" stroke="#ED2D2D" stroke-width="2" stroke-linecap="round" stroke-linejoin="round"/>
<path d="M25.9761 17.4502H29.2261" stroke="#ED2D2D" stroke-width="2" stroke-linecap="round" stroke-linejoin="round"/>
</svg>
